<?xml version="1.0" encoding="UTF-8"?>
<svg version="1.1" xmlns="http://www.w3.org/2000/svg" width="512" height="512">
<path d="M0 0 C1.35279808 -0.01058945 1.35279808 -0.01058945 2.73292542 -0.02139282 C40.65979482 -0.25083645 40.65979482 -0.25083645 57.3046875 3.203125 C58.79524658 3.50911621 58.79524658 3.50911621 60.31591797 3.82128906 C82.32160452 8.47510056 103.07316694 15.38909761 123.3046875 25.203125 C123.96098145 25.51830078 124.61727539 25.83347656 125.29345703 26.15820312 C147.92158266 37.16615917 168.24316588 52.81178971 186.3046875 70.203125 C186.82836914 70.70489258 187.35205078 71.20666016 187.89160156 71.72363281 C194.90711513 78.47850811 201.36028214 85.4682361 207.3046875 93.203125 C207.72572754 93.74775391 208.14676758 94.29238281 208.58056641 94.85351562 C216.25816263 104.84364083 223.01390605 115.29110966 229.3046875 126.203125 C229.73136719 126.93982422 230.15804688 127.67652344 230.59765625 128.43554688 C249.00431033 160.63303255 260.21016964 198.8772287 260.54296875 236.07421875 C260.5527626 236.98601898 260.56255646 237.89781921 260.57264709 238.83724976 C260.74436762 258.97033282 260.56585349 278.43523314 256.3046875 298.203125 C256.09569824 299.20956055 255.88670898 300.21599609 255.67138672 301.25292969 C243.98603885 356.23971271 212.06269148 408.78760799 167.3046875 443.203125 C166.77601074 443.61353027 166.24733398 444.02393555 165.70263672 444.44677734 C125.74374453 475.29406836 75.51159438 496.13836518 24.51171875 496.40625 C23.16104309 496.41683945 23.16104309 496.41683945 21.78308105 496.42764282 C-16.05099356 496.6569674 -16.05099356 496.6569674 -32.6953125 493.203125 C-34.18587158 492.89713379 -34.18587158 492.89713379 -35.70654297 492.58496094 C-83.72935843 482.42898919 -126.32100433 460.22425593 -161.6953125 426.203125 C-162.18660645 425.73374512 -162.67790039 425.26436523 -163.18408203 424.78076172 C-169.91181475 418.32439973 -175.94779876 411.53823869 -181.6953125 404.203125 C-182.47390625 403.24148438 -183.2525 402.27984375 -184.0546875 401.2890625 C-214.95997739 362.41138892 -235.64380051 311.33134999 -235.8984375 261.2890625 C-235.90902695 259.90290237 -235.90902695 259.90290237 -235.91983032 258.48873901 C-236.14862193 219.74330758 -236.14862193 219.74330758 -232.6953125 203.203125 C-232.49131836 202.21086914 -232.28732422 201.21861328 -232.07714844 200.19628906 C-221.92634205 152.19051039 -199.73069303 109.55008088 -165.6953125 74.203125 C-165.19354492 73.67944336 -164.69177734 73.15576172 -164.17480469 72.61621094 C-157.41992939 65.60069737 -150.4302014 59.14753036 -142.6953125 53.203125 C-142.15068359 52.78208496 -141.60605469 52.36104492 -141.04492188 51.92724609 C-131.05479667 44.24964987 -120.60732784 37.49390645 -109.6953125 31.203125 C-108.95861328 30.77644531 -108.22191406 30.34976563 -107.46289062 29.91015625 C-75.53556602 11.65794781 -36.94344306 0.19286315 0 0 Z " fill="#428DE8" transform="translate(243.6953125,7.796875)"/>
<path d="M0 0 C7.45562703 5.48834393 11.06928759 12.68180708 12.68066406 21.68115234 C13.4659242 26.97521208 14.02320913 32.28114038 14.3125 37.625 C14.36720459 38.5845459 14.42190918 39.5440918 14.47827148 40.53271484 C14.75203906 49.57888714 13.02194094 57.79522535 10.875 66.5 C10.38236068 68.55100799 9.89389329 70.60294526 9.40794373 72.6555481 C8.96870602 74.50240079 8.51899868 76.34675451 8.06860352 78.19091797 C3.94660473 96.91227246 6.95239347 114.90128 10.89453125 133.34863281 C16.56008221 159.8938588 16.56008221 159.8938588 12.3125 168.625 C11.6525 168.955 10.9925 169.285 10.3125 169.625 C9.65477572 172.65434491 9.65477572 172.65434491 9.3125 175.625 C9.9725 175.625 10.6325 175.625 11.3125 175.625 C12.00273612 182.11321954 10.21469382 186.42207491 6.3125 191.625 C0.43836236 197.51216234 -7.7942796 201.76315427 -16.1875 202 C-19.29717588 201.85963269 -22.16093123 201.33051772 -25.1875 200.625 C-41.43566525 197.19123767 -57.66768714 201.05722751 -73.63867188 204.20703125 C-88.39336108 207.08934263 -102.43598058 208.17255302 -117.46826172 207.71923828 C-120.69898632 207.62466376 -123.92842173 207.57392466 -127.16015625 207.52734375 C-129.211004 207.47932312 -131.26179194 207.42865563 -133.3125 207.375 C-134.24199463 207.36122314 -135.17148926 207.34744629 -136.12915039 207.33325195 C-143.70443777 207.05165568 -149.24693908 204.88727203 -155 199.9375 C-158.35959029 196.20053107 -160.12059243 192.64520557 -160.6875 187.625 C-160.44824212 184.16096203 -160.09965345 180.78231773 -159.55273438 177.35620117 C-157.677915 165.37582128 -158.88677422 153.27085509 -159.89453125 141.2578125 C-160.02225733 139.69159071 -160.14958247 138.12533619 -160.27653503 136.55905151 C-160.54318284 133.28274491 -160.81328585 130.00674903 -161.08618164 126.73095703 C-161.42739758 122.63416108 -161.76215347 118.53687287 -162.09451485 114.43935013 C-163.70460493 94.56783913 -163.70460493 94.56783913 -165.55615234 74.71777344 C-165.62639335 74.01008505 -165.69663435 73.30239666 -165.76900387 72.57326317 C-166.09809254 69.27250419 -166.43490281 65.97294381 -166.78291321 62.67410278 C-168.60068276 44.84950971 -169.66814475 23.15955653 -158.16796875 8.15625 C-153.01874135 2.83040002 -146.1803562 -0.24169329 -138.81738281 -0.52270508 C-137.34156097 -0.48910246 -135.86593907 -0.4457919 -134.390625 -0.39453125 C-132.71194664 -0.36026272 -131.03323266 -0.32770761 -129.35449219 -0.29663086 C-128.47192749 -0.27792938 -127.58936279 -0.25922791 -126.68005371 -0.23995972 C-102.73425784 0.21807677 -79.07002768 -1.81683323 -55.46948242 -5.93676758 C-39.21320768 -8.497541 -14.39971434 -8.77751512 0 0 Z " fill="#CFEF9C" transform="translate(332.6875,155.375)"/>
<path d="M0 0 C2.36080808 1.20777723 4.75788629 2.19085483 7.23193359 3.1418457 C7.23193359 3.8018457 7.23193359 4.4618457 7.23193359 5.1418457 C8.88193359 5.4718457 10.53193359 5.8018457 12.23193359 6.1418457 C12.23193359 6.8018457 12.23193359 7.4618457 12.23193359 8.1418457 C13.62412109 8.5749707 13.62412109 8.5749707 15.04443359 9.0168457 C18.23193359 10.1418457 18.23193359 10.1418457 21.23193359 12.1418457 C21.23193359 12.8018457 21.23193359 13.4618457 21.23193359 14.1418457 C21.93705078 14.3790332 22.64216797 14.6162207 23.36865234 14.8605957 C26.73480228 16.36686743 29.20176532 18.29769088 32.04443359 20.6418457 C33.02025391 21.4359082 33.99607422 22.2299707 35.00146484 23.0480957 C35.73751953 23.7390332 36.47357422 24.4299707 37.23193359 25.1418457 C37.23193359 25.8018457 37.23193359 26.4618457 37.23193359 27.1418457 C38.22193359 27.4718457 39.21193359 27.8018457 40.23193359 28.1418457 C40.23193359 28.8018457 40.23193359 29.4618457 40.23193359 30.1418457 C40.81072266 30.38676758 41.38951172 30.63168945 41.98583984 30.8840332 C48.21907783 34.37464647 52.65386731 41.32256696 56.12646484 47.4152832 C57.31118192 49.26561871 58.67594868 50.5978916 60.23193359 52.1418457 C63.79035759 57.17272101 66.55665124 62.6078947 69.23193359 68.1418457 C70.2202945 70.09236098 71.21138211 72.04145073 72.20458984 73.98950195 C89.20883131 109.61435765 87.82249072 151.19807127 75.30224609 187.86450195 C71.04076396 199.15931522 65.36054324 210.39941252 58.23193359 220.1418457 C57.80912109 220.75543945 57.38630859 221.3690332 56.95068359 222.0012207 C50.53357796 231.0299391 42.59549258 239.54276359 34.04833984 246.5793457 C32.09902198 248.20415167 32.09902198 248.20415167 30.00146484 250.48168945 C26.69322947 253.65927519 23.15197861 256.14712378 19.35693359 258.7043457 C18.67501953 259.17291992 17.99310547 259.64149414 17.29052734 260.12426758 C11.64155965 263.97094558 5.96603354 267.64743089 -0.45556641 270.0793457 C-3.17271855 271.12126119 -5.8552083 272.1806443 -8.51416016 273.36450195 C-16.11369084 276.73634257 -23.67943203 278.87130448 -31.77151489 280.68727112 C-33.11298982 280.99269795 -34.45060383 281.31555667 -35.78390503 281.65489197 C-41.38679231 283.02879928 -46.66366889 283.46248754 -52.42041016 283.4777832 C-53.31941544 283.48444 -54.21842072 283.4910968 -55.14466858 283.49795532 C-57.03970314 283.50802226 -58.93477272 283.5127742 -60.82983398 283.51245117 C-63.66729477 283.51678722 -66.50314928 283.55306757 -69.34033203 283.59106445 C-81.34888785 283.66406698 -92.18630242 282.2901896 -103.76806641 279.1418457 C-104.77224609 278.87686279 -105.77642578 278.61187988 -106.81103516 278.33886719 C-113.36666937 276.5551472 -119.54513088 273.83675084 -125.76806641 271.1418457 C-126.50541016 270.84665039 -127.24275391 270.55145508 -128.00244141 270.24731445 C-140.70589303 265.01788606 -151.55290399 257.17718673 -161.76806641 248.1418457 C-162.58791016 247.45477539 -163.40775391 246.76770508 -164.25244141 246.05981445 C-169.6416798 241.52100552 -169.6416798 241.52100552 -170.76806641 238.1418457 C-171.75806641 237.8118457 -172.74806641 237.4818457 -173.76806641 237.1418457 C-173.76806641 236.4818457 -173.76806641 235.8218457 -173.76806641 235.1418457 C-174.75806641 234.8118457 -175.74806641 234.4818457 -176.76806641 234.1418457 C-178.59228516 232.14575195 -178.59228516 232.14575195 -180.45556641 229.7043457 C-181.07818359 228.90125977 -181.70080078 228.09817383 -182.34228516 227.27075195 C-183.76806641 225.1418457 -183.76806641 225.1418457 -183.76806641 223.1418457 C-184.42806641 223.1418457 -185.08806641 223.1418457 -185.76806641 223.1418457 C-187.02978516 221.34106445 -187.02978516 221.34106445 -188.45556641 218.8293457 C-190.54861278 215.1855192 -192.75165692 211.71988777 -195.14306641 208.2668457 C-198.47334744 203.08228792 -200.79927293 197.65497637 -203.08056641 191.9543457 C-203.58692627 190.68905029 -203.58692627 190.68905029 -204.10351562 189.39819336 C-205.78820341 185.05822628 -207.15253281 180.79452404 -208.25090027 176.26106262 C-208.7490724 174.21967835 -209.28277162 172.19035924 -209.82080078 170.15917969 C-212.56320382 159.33496632 -213.39537717 149.03068614 -213.28955078 137.88330078 C-213.26810207 135.20879239 -213.28949164 132.53697691 -213.31494141 129.86254883 C-213.36284642 100.43284563 -203.25713363 65.23547843 -182.76806641 43.1418457 C-182.10806641 43.1418457 -181.44806641 43.1418457 -180.76806641 43.1418457 C-180.43806641 41.8218457 -180.10806641 40.5018457 -179.76806641 39.1418457 C-179.10806641 39.1418457 -178.44806641 39.1418457 -177.76806641 39.1418457 C-177.56568359 38.61333008 -177.36330078 38.08481445 -177.15478516 37.5402832 C-175.15512664 34.0817189 -172.42467205 31.54645735 -169.58056641 28.7668457 C-168.99339844 28.18757324 -168.40623047 27.60830078 -167.80126953 27.01147461 C-162.46175674 21.77691902 -157.26479968 16.93160678 -150.76806641 13.1418457 C-150.33494141 12.68680664 -149.90181641 12.23176758 -149.45556641 11.76293945 C-138.4827183 1.22189324 -120.07110454 -4.51272455 -105.76806641 -8.8581543 C-104.82447266 -9.15592773 -103.88087891 -9.45370117 -102.90869141 -9.76049805 C-70.62072623 -19.36091373 -29.75455005 -15.86000574 0 0 Z M-64.13525391 31.0715332 C-66.67952439 31.42830651 -69.22379523 31.7850773 -71.76806641 32.1418457 C-72.41804596 32.23778015 -73.06802551 32.3337146 -73.73770142 32.43255615 C-86.86588473 34.35036035 -99.76145142 34.26657845 -113.00317383 33.94995117 C-124.50050751 33.6940743 -133.62217268 33.53671419 -143.58056641 39.9543457 C-154.66935994 51.04313923 -155.76607608 66.22369299 -155.84838867 81.24194336 C-155.82809721 86.94951778 -155.38503173 92.55989985 -154.81494141 98.2355957 C-154.60749857 100.39843705 -154.40006063 102.56127887 -154.19262695 104.72412109 C-154.08252289 105.85157745 -153.97241882 106.97903381 -153.85897827 108.14065552 C-153.27396206 114.14881551 -152.70962201 120.15889904 -152.14697266 126.16918945 C-152.03146561 127.40285751 -151.91595856 128.63652557 -151.79695129 129.90757751 C-150.68307071 141.89676948 -149.67006928 153.89315848 -148.71813965 165.89624023 C-148.54484852 168.07949899 -148.36967615 170.26260934 -148.19250488 172.44555664 C-145.88336357 200.98049742 -145.88336357 200.98049742 -148.01806641 213.8293457 C-148.97164349 220.79467226 -148.93114698 226.24506844 -144.76806641 232.1418457 C-139.6809945 237.78944736 -134.83526381 241.03747457 -127.16259766 241.5559082 C-125.30240394 241.6380203 -123.44162556 241.7075003 -121.58056641 241.7668457 C-120.56881348 241.80116699 -119.55706055 241.83548828 -118.51464844 241.87084961 C-116.35955238 241.93785597 -114.20425823 241.9987288 -112.04882812 242.05395508 C-109.90428157 242.11140684 -107.75999589 242.17995092 -105.61621094 242.26098633 C-87.7826455 242.91849632 -71.23754161 240.59102911 -53.76806641 237.1418457 C-39.39829323 234.36783697 -25.43279319 232.33617639 -10.94775391 235.67700195 C-1.6036029 237.669751 6.04534225 234.7758394 14.15380859 230.01293945 C18.51314653 226.78837763 21.27490841 222.11489239 23.23193359 217.1418457 C23.59445222 214.63174841 23.50262438 212.6863391 23.23193359 210.1418457 C22.57193359 210.1418457 21.91193359 210.1418457 21.23193359 210.1418457 C21.54443359 207.2668457 21.54443359 207.2668457 22.23193359 204.1418457 C23.22193359 203.4818457 24.21193359 202.8218457 25.23193359 202.1418457 C28.55367593 190.7414324 25.20830509 178.57880913 22.79443359 167.3293457 C22.30264373 164.98602627 21.81422862 162.64203385 21.32737732 160.29768372 C21.02602602 158.85217323 20.72130125 157.40736004 20.41249084 155.96342468 C16.36971166 136.87180438 18.29365954 119.49295164 22.81396484 100.7253418 C25.1502317 91.02466912 26.9915703 82.20127729 26.23193359 72.1418457 C26.18262695 71.44027344 26.13332031 70.73870117 26.08251953 70.01586914 C25.13456388 57.32409723 23.86248444 45.48756262 14.24365234 36.2277832 C-6.00495627 21.32208476 -40.90234248 27.76279772 -64.13525391 31.0715332 Z " fill="#FEFEFE" transform="translate(320.76806640625,120.858154296875)"/>
<path d="M0 0 C1.35279808 -0.01058945 1.35279808 -0.01058945 2.73292542 -0.02139282 C40.65979482 -0.25083645 40.65979482 -0.25083645 57.3046875 3.203125 C58.79524658 3.50911621 58.79524658 3.50911621 60.31591797 3.82128906 C82.32160452 8.47510056 103.07316694 15.38909761 123.3046875 25.203125 C123.96098145 25.51830078 124.61727539 25.83347656 125.29345703 26.15820312 C147.92158266 37.16615917 168.24316588 52.81178971 186.3046875 70.203125 C186.82836914 70.70489258 187.35205078 71.20666016 187.89160156 71.72363281 C202.35403804 85.64876515 215.22441896 101.79487968 225.3046875 119.203125 C225.3046875 119.533125 225.3046875 119.863125 225.3046875 120.203125 C180.4246875 120.533125 135.5446875 120.863125 89.3046875 121.203125 C89.3046875 120.543125 89.3046875 119.883125 89.3046875 119.203125 C87.6546875 118.873125 86.0046875 118.543125 84.3046875 118.203125 C84.3046875 117.543125 84.3046875 116.883125 84.3046875 116.203125 C83.0671875 115.81125 81.8296875 115.419375 80.5546875 115.015625 C76.93583928 113.81866438 73.47872433 112.42807368 69.9921875 110.890625 C39.36253228 98.01446421 2.54314046 95.32023768 -29.24145508 105.61401367 C-34.49919352 107.30118449 -34.49919352 107.30118449 -36.6953125 106.203125 C-37.1903125 105.605 -37.6853125 105.006875 -38.1953125 104.390625 C-46.62429629 97.01526418 -58.08176681 96.7411379 -68.6953125 97.203125 C-78.14297897 98.08139413 -87.93183673 101.24072347 -94.6953125 108.203125 C-97.0707258 112.10558971 -98.58527607 115.76297928 -99.6953125 120.203125 C-133.0253125 120.203125 -166.3553125 120.203125 -200.6953125 120.203125 C-197.59196121 114.61709268 -194.66637702 109.43681934 -190.9453125 104.328125 C-190.513396 103.73080566 -190.08147949 103.13348633 -189.63647461 102.51806641 C-176.3541728 84.31468513 -160.60040121 66.96351725 -142.6953125 53.203125 C-142.15068359 52.78208496 -141.60605469 52.36104492 -141.04492188 51.92724609 C-131.05479667 44.24964987 -120.60732784 37.49390645 -109.6953125 31.203125 C-108.95861328 30.77644531 -108.22191406 30.34976563 -107.46289062 29.91015625 C-75.53556602 11.65794781 -36.94344306 0.19286315 0 0 Z " fill="#63ACF6" transform="translate(243.6953125,7.796875)"/>
<path d="M0 0 C17.36761125 -0.21032042 34.73482468 -0.36898613 52.10341835 -0.46630955 C60.16817438 -0.51270166 68.23213883 -0.57593793 76.29638672 -0.67895508 C83.32594754 -0.76871169 90.35493511 -0.82673531 97.38505304 -0.84679645 C101.10721266 -0.85852267 104.82773252 -0.88603709 108.549366 -0.95157051 C112.70633632 -1.0241747 116.8604641 -1.02590642 121.01806641 -1.02172852 C122.24949371 -1.054086 123.48092102 -1.08644348 124.74966431 -1.11978149 C132.91565112 -1.03082715 132.91565112 -1.03082715 136.0769558 1.97444057 C137.62585076 4.26032622 138.85260385 6.4924908 140 9 C140.7741626 10.3780481 140.7741626 10.3780481 141.56396484 11.78393555 C142.8458319 14.41342743 144.12410432 17.04308059 145.375 19.6875 C145.84832764 20.68789307 146.32165527 21.68828613 146.80932617 22.71899414 C160.26934779 51.68863676 168.95122589 83.78688722 169.23828125 115.87109375 C169.2480751 116.78289398 169.25786896 117.69469421 169.26795959 118.63412476 C169.43968012 138.76720782 169.26116599 158.23210814 165 178 C164.68651611 179.50965332 164.68651611 179.50965332 164.36669922 181.04980469 C153.14495528 233.85504472 153.14495528 233.85504472 139 248 C136.68969774 248.12289651 134.37586109 248.17994483 132.0625 248.2109375 C130.60325704 248.23640891 129.14402867 248.2627272 127.68481445 248.28979492 C126.91900055 248.30303802 126.15318665 248.31628113 125.36416626 248.32992554 C96.48986591 248.88043402 74.30576583 253.98022669 51.42578125 272.65332031 C39.70046847 282.18164174 26.65641651 287.43012911 12.3125 291.75 C11.33494751 292.04789429 11.33494751 292.04789429 10.33764648 292.35180664 C-22.58632916 301.85811097 -57.64387834 295.83844839 -87.17578125 279.57421875 C-88.10777344 279.05472656 -89.03976563 278.53523438 -90 278 C-90 277.67 -90 277.34 -90 277 C-89.34330322 276.99589111 -88.68660645 276.99178223 -88.01000977 276.98754883 C-63.04136303 276.71720835 -38.41175901 273.49405148 -15.95336914 261.9675293 C-14.17212738 261.08525694 -12.33728138 260.31338629 -10.5 259.5546875 C-6.41333973 257.7394076 -2.76278478 255.52539719 1 253.125 C1.67289062 252.70347656 2.34578125 252.28195312 3.0390625 251.84765625 C9.59115448 247.71149008 15.62642119 243.63317199 21 238 C21.93457031 237.08863281 22.86914062 236.17726563 23.83203125 235.23828125 C30.04852591 229.15508576 35.71649314 222.92859877 41 216 C41.6703125 215.19175781 42.340625 214.38351562 43.03125 213.55078125 C45.00005634 210.99992701 46.4988663 208.47225902 48 205.625 C49.62343118 202.56530013 51.25531568 199.58221071 53.0625 196.625 C56.06930295 191.40988119 57.92749505 185.6300851 60 180 C60.36351562 179.05511719 60.72703125 178.11023438 61.1015625 177.13671875 C67.10787975 161.29563013 69.38832363 145.2134766 69.3125 128.3125 C69.30758545 127.00249023 69.3026709 125.69248047 69.29760742 124.34277344 C69.05715869 104.32264216 65.78007595 83.70708489 56 66 C55.525625 64.865625 55.05125 63.73125 54.5625 62.5625 C52.75338914 58.43772723 50.61081301 54.57085873 48.40234375 50.6484375 C47 48 47 48 46.00390625 45.2265625 C45.67261719 44.49179688 45.34132813 43.75703125 45 43 C44.01 42.67 43.02 42.34 42 42 C40.67578125 40.25 40.67578125 40.25 39.3125 38 C34.84786738 31.03650584 29.60805282 25.00068862 23 20 C22.2575 19.236875 21.515 18.47375 20.75 17.6875 C17.72169631 14.72802139 14.50719908 12.20584424 11.14453125 9.640625 C9.46597032 8.35648002 7.81996879 7.02975212 6.1875 5.6875 C4.18607216 4.14354138 2.30332922 3.02370187 0 2 C0 1.34 0 0.68 0 0 Z " fill="#428DE7" transform="translate(335,128)"/>
<path d="M0 0 C11.23306192 -0.40503829 21.33898676 1.89190606 30.0625 9.1953125 C27.87439385 11.63681907 25.9749218 12.84270892 22.9296875 14.02734375 C22.12748779 14.34815918 21.32528809 14.66897461 20.4987793 14.99951172 C19.23094604 15.49862061 19.23094604 15.49862061 17.9375 16.0078125 C11.76365914 18.50742282 6.17472741 21.03423691 0.79296875 25.01953125 C-1.5951884 26.6421843 -4.20994914 27.30885847 -6.9375 28.1953125 C-7.2675 29.1853125 -7.5975 30.1753125 -7.9375 31.1953125 C-9.609375 32.40625 -9.609375 32.40625 -11.6875 33.5703125 C-15.38456393 35.64461936 -17.99471832 38.14434031 -20.9375 41.1953125 C-22.03395852 42.28507304 -23.13305838 43.37218055 -24.234375 44.45703125 C-25.38544781 45.59892694 -26.53648906 46.74085445 -27.6875 47.8828125 C-28.27660156 48.46353516 -28.86570313 49.04425781 -29.47265625 49.64257812 C-32.58656764 52.62686566 -32.58656764 52.62686566 -34.9375 56.1953125 C-35.5975 56.1953125 -36.2575 56.1953125 -36.9375 56.1953125 C-37.02 56.7728125 -37.1025 57.3503125 -37.1875 57.9453125 C-38.15744911 60.85515984 -39.71521101 62.10001145 -41.9375 64.1953125 C-46.25351993 68.94293442 -48.99579106 74.54247988 -51.9375 80.1953125 C-52.53175781 81.33097656 -53.12601562 82.46664062 -53.73828125 83.63671875 C-57.34958963 90.68147663 -60.48933506 97.66691797 -62.9375 105.1953125 C-63.20175781 105.96746094 -63.46601562 106.73960937 -63.73828125 107.53515625 C-68.22140154 121.35236288 -69.45253346 134.93279718 -69.38354492 149.35791016 C-69.37502935 152.06099663 -69.40393568 154.76196367 -69.43554688 157.46484375 C-69.54356596 184.44245788 -60.94281937 209.88516807 -46.44921875 232.51953125 C-45.99160156 233.23753906 -45.53398437 233.95554687 -45.0625 234.6953125 C-44.65257812 235.324375 -44.24265625 235.9534375 -43.8203125 236.6015625 C-42.9375 238.1953125 -42.9375 238.1953125 -42.9375 240.1953125 C-42.2775 240.1953125 -41.6175 240.1953125 -40.9375 240.1953125 C-38.86555826 242.84812974 -37.00529617 245.6203533 -35.10546875 248.3984375 C-32.93635674 251.19678741 -30.73015969 253.04711274 -27.9375 255.1953125 C-26.84201536 256.41650849 -25.77774097 257.6665808 -24.75 258.9453125 C-21.22160975 263.10600277 -17.20856618 266.33165405 -12.87890625 269.62890625 C-11.91791016 270.40427734 -11.91791016 270.40427734 -10.9375 271.1953125 C-10.9375 271.5253125 -10.9375 271.8553125 -10.9375 272.1953125 C-53.5075 272.1953125 -96.0775 272.1953125 -139.9375 272.1953125 C-150.46917629 252.30214618 -150.46917629 252.30214618 -154.125 242.5078125 C-154.54152832 241.40332764 -154.95805664 240.29884277 -155.38720703 239.16088867 C-164.07315275 215.65149113 -170.01259876 190.44148259 -170.140625 165.28125 C-170.14768463 164.35714325 -170.15474426 163.4330365 -170.16201782 162.48092651 C-170.39080943 123.73549508 -170.39080943 123.73549508 -166.9375 107.1953125 C-166.73350586 106.20305664 -166.52951172 105.21080078 -166.31933594 104.18847656 C-153.28421399 42.54202649 -153.28421399 42.54202649 -134.9375 24.1953125 C-131.80190114 24.09996292 -128.68836387 24.06980371 -125.55249023 24.08178711 C-124.07460526 24.08156807 -124.07460526 24.08156807 -122.56686401 24.0813446 C-119.29325193 24.08204418 -116.01969596 24.08983865 -112.74609375 24.09765625 C-110.48307832 24.09952027 -108.22006249 24.10094425 -105.95704651 24.10194397 C-99.98771052 24.1057704 -94.01839868 24.11560175 -88.04907227 24.12664795 C-81.96305671 24.13685938 -75.87703727 24.14144101 -69.79101562 24.14648438 C-57.83983311 24.15722391 -45.88866856 24.17430182 -33.9375 24.1953125 C-33.79578369 23.08687988 -33.65406738 21.97844727 -33.50805664 20.83642578 C-32.60487605 15.07261091 -29.56576122 11.29250238 -25.04296875 7.68359375 C-17.12738758 2.48460257 -9.35217522 0.62182016 0 0 Z " fill="#428DE8" transform="translate(177.9375,103.8046875)"/>
<path d="M0 0 C1.35279808 -0.01058945 1.35279808 -0.01058945 2.73292542 -0.02139282 C40.65979482 -0.25083645 40.65979482 -0.25083645 57.3046875 3.203125 C58.79524658 3.50911621 58.79524658 3.50911621 60.31591797 3.82128906 C82.32160452 8.47510056 103.07316694 15.38909761 123.3046875 25.203125 C123.96098145 25.51830078 124.61727539 25.83347656 125.29345703 26.15820312 C142.59720618 34.57599756 158.50056262 45.98227024 173.3046875 58.203125 C173.86816895 58.65929199 174.43165039 59.11545898 175.01220703 59.58544922 C176.46203042 60.76843395 177.88589825 61.98309311 179.3046875 63.203125 C179.3046875 63.533125 179.3046875 63.863125 179.3046875 64.203125 C154.70280299 64.29698328 130.1009457 64.36730604 105.49891758 64.41037369 C94.07319174 64.43091117 82.6475778 64.45886112 71.22192383 64.50488281 C61.25169079 64.54502269 51.28153887 64.57062166 41.31122726 64.57947898 C36.0425679 64.58464823 30.7741404 64.59660899 25.50555611 64.62604523 C1.34799751 64.75577763 -21.41852891 64.226208 -45.0078125 58.453125 C-61.57908394 54.85502022 -77.84111588 57.90470607 -94.2734375 60.9140625 C-108.58739913 63.46091603 -122.19163786 64.48373123 -136.6953125 64.328125 C-138.35676533 64.31805756 -140.01822419 64.30893847 -141.6796875 64.30078125 C-145.68504931 64.27910611 -149.69011085 64.24479243 -153.6953125 64.203125 C-153.6953125 63.543125 -153.6953125 62.883125 -153.6953125 62.203125 C-150.25253467 58.94644327 -146.44169647 56.10165438 -142.6953125 53.203125 C-142.13328125 52.76758301 -141.57125 52.33204102 -140.9921875 51.88330078 C-131.02008763 44.22174094 -120.58629166 37.48177909 -109.6953125 31.203125 C-108.95861328 30.77644531 -108.22191406 30.34976563 -107.46289062 29.91015625 C-75.53556602 11.65794781 -36.94344306 0.19286315 0 0 Z " fill="#428DE8" transform="translate(243.6953125,7.796875)"/>
<path d="M0 0 C3.56688841 1.38139609 7.04082837 2.92428606 10.51953125 4.51318359 C25.04839297 11.08659068 38.60671632 13.10042406 54.46875 13.31640625 C55.74480103 13.33718735 57.02085205 13.35796844 58.33557129 13.37937927 C61.70232035 13.43343672 65.06908195 13.4837599 68.43591309 13.53222656 C71.88180471 13.58276658 75.32761595 13.63828171 78.7734375 13.69335938 C85.51556066 13.80012466 92.25774459 13.901962 99 14 C97.66931287 21.7294558 95.9536404 29.00587984 93.4375 36.4375 C92.91675903 37.98642944 92.91675903 37.98642944 92.38549805 39.56665039 C89.18403105 48.8616689 85.5299618 58.00522053 81.06396484 66.77246094 C79.9343797 69.0079687 79.9343797 69.0079687 79.18994141 71.53222656 C78.10822494 74.37390076 77.28873181 75.97656268 75 78 C70.3228977 79.06377768 65.84041492 79.05858845 61.06240845 78.93344116 C57.1964325 78.83573691 53.33156359 78.88893589 49.46484375 78.91796875 C48.71466476 78.91942398 47.96448578 78.92087921 47.1915741 78.92237854 C24.13370868 79.01450426 5.0333658 88.28320246 -12.57421875 102.65332031 C-24.29953153 112.18164174 -37.34358349 117.43012911 -51.6875 121.75 C-52.33920166 121.94859619 -52.99090332 122.14719238 -53.66235352 122.35180664 C-86.58632916 131.85811097 -121.64387834 125.83844839 -151.17578125 109.57421875 C-152.10777344 109.05472656 -153.03976563 108.53523438 -154 108 C-154 107.67 -154 107.34 -154 107 C-153.34330322 106.99589111 -152.68660645 106.99178223 -152.01000977 106.98754883 C-127.04136303 106.71720835 -102.41175901 103.49405148 -79.95336914 91.9675293 C-78.17212738 91.08525694 -76.33728138 90.31338629 -74.5 89.5546875 C-70.41333973 87.7394076 -66.76278478 85.52539719 -63 83.125 C-62.32710938 82.70347656 -61.65421875 82.28195312 -60.9609375 81.84765625 C-54.40884552 77.71149008 -48.37357881 73.63317199 -43 68 C-42.06542969 67.08863281 -41.13085938 66.17726563 -40.16796875 65.23828125 C-33.95147409 59.15508576 -28.28350686 52.92859877 -23 46 C-22.3296875 45.19175781 -21.659375 44.38351562 -20.96875 43.55078125 C-18.99994366 40.99992701 -17.5011337 38.47225902 -16 35.625 C-14.37656882 32.56530013 -12.74468432 29.58221071 -10.9375 26.625 C-7.92690648 21.41579877 -6.09958048 15.61654337 -4 10 C-2.68352441 6.65981599 -1.34503527 3.32877445 0 0 Z " fill="#256DD6" transform="translate(399,298)"/>
<path d="M0 0 C15.72632431 -0.04696589 31.45262931 -0.08210821 47.17900658 -0.10362434 C54.48296851 -0.11388542 61.78688657 -0.12784534 69.09082031 -0.15087891 C75.46566508 -0.17097273 81.84047804 -0.18375386 88.21535361 -0.18817699 C91.58288202 -0.19075768 94.95024821 -0.19780373 98.31776047 -0.21146011 C118.25407548 -0.28902435 136.81235685 0.22201496 156 6 C157.46459494 6.43443344 158.9294485 6.86799574 160.39453125 7.30078125 C161.13525879 7.51976074 161.87598633 7.73874023 162.63916016 7.96435547 C163.74590088 8.29137451 163.74590088 8.29137451 164.875 8.625 C165.60251465 8.84043457 166.3300293 9.05586914 167.07958984 9.27783203 C181.56958653 13.54705704 195.94260486 15.37914941 211.0625 15.3125 C211.73531006 15.31034485 212.40812012 15.3081897 213.10131836 15.30596924 C234.78088291 15.195307 254.48335752 10.68356096 275.2578125 4.79296875 C288.1472318 1.20061494 300.61703193 -0.40622837 314 0 C280.28651512 34.67672731 221.99280259 55.09181824 174.19067383 56.16113281 C172.52951478 56.18060438 170.8682815 56.19439902 169.20703125 56.203125 C167.85635559 56.21371445 167.85635559 56.21371445 166.47839355 56.22451782 C128.64431894 56.4538424 128.64431894 56.4538424 112 53 C110.50944092 52.69400879 110.50944092 52.69400879 108.98876953 52.38183594 C69.86831185 44.1085546 30.10201744 28.06287145 0 1 C0 0.67 0 0.34 0 0 Z " fill="#62ACF6" transform="translate(99,448)"/>
<path d="M0 0 C34.32 0 68.64 0 104 0 C105.32 2.64 106.64 5.28 108 8 C111.55485751 14.833332 115.42353777 21.36408188 119.6796875 27.78515625 C121 30 121 30 121 32 C121.66 32 122.32 32 123 32 C125.07194174 34.65281724 126.93220383 37.4250408 128.83203125 40.203125 C131.00114326 43.00147491 133.20734031 44.85180024 136 47 C137.09548464 48.22119599 138.15975903 49.4712683 139.1875 50.75 C142.71589025 54.91069027 146.72893382 58.13634155 151.05859375 61.43359375 C151.69925781 61.95050781 152.33992187 62.46742188 153 63 C153 63.33 153 63.66 153 64 C110.43 64 67.86 64 24 64 C13.51828063 44.20119675 13.51828063 44.20119675 9.75 34.0625 C9.12569092 32.41205688 9.12569092 32.41205688 8.48876953 30.72827148 C0 7.8937142 0 7.8937142 0 0 Z " fill="#256DD6" transform="translate(14,312)"/>
<path d="M0 0 C33 0 66 0 100 0 C100.33 12.21 100.66 24.42 101 37 C103.61318927 48.75935172 106.60096596 60.44328426 110 72 C75.68 72 41.36 72 6 72 C-1.7385154 48.7844538 0 24.17221874 0 0 Z " fill="#428DE8" transform="translate(8,240)"/>
<path d="M0 0 C17.36761125 -0.21032042 34.73482468 -0.36898613 52.10341835 -0.46630955 C60.16817438 -0.51270166 68.23213883 -0.57593793 76.29638672 -0.67895508 C83.32594754 -0.76871169 90.35493511 -0.82673531 97.38505304 -0.84679645 C101.10721266 -0.85852267 104.82773252 -0.88603709 108.549366 -0.95157051 C112.70633632 -1.0241747 116.8604641 -1.02590642 121.01806641 -1.02172852 C122.24949371 -1.054086 123.48092102 -1.08644348 124.74966431 -1.11978149 C132.91565112 -1.03082715 132.91565112 -1.03082715 136.0769558 1.97444057 C137.62585076 4.26032622 138.85260385 6.4924908 140 9 C140.7741626 10.3780481 140.7741626 10.3780481 141.56396484 11.78393555 C142.84581488 14.41339251 144.12330296 17.04350932 145.375 19.6875 C145.84397705 20.67194092 146.3129541 21.65638184 146.79614258 22.6706543 C159 48.80456582 159 48.80456582 159 56 C124.02 56 89.04 56 53 56 C52.505 56.99 52.505 56.99 52 58 C51.20576139 56.43880578 50.41472877 54.87598036 49.625 53.3125 C49.18414062 52.44238281 48.74328125 51.57226562 48.2890625 50.67578125 C47 48 47 48 46.0234375 45.23046875 C45.68570313 44.49441406 45.34796875 43.75835937 45 43 C44.01 42.67 43.02 42.34 42 42 C40.67578125 40.25 40.67578125 40.25 39.3125 38 C34.84786738 31.03650584 29.60805282 25.00068862 23 20 C22.2575 19.236875 21.515 18.47375 20.75 17.6875 C17.72169631 14.72802139 14.50719908 12.20584424 11.14453125 9.640625 C9.46597032 8.35648002 7.81996879 7.02975212 6.1875 5.6875 C4.18607216 4.14354138 2.30332922 3.02370187 0 2 C0 1.34 0 0.68 0 0 Z " fill="#428DE8" transform="translate(335,128)"/>
<path d="M0 0 C34.98 0 69.96 0 106 0 C105.13379405 4.33102973 104.05632659 7.35068574 102.25 11.3125 C95.87950598 25.82562968 92.99693238 40.266105 90 56 C57 56 24 56 -10 56 C-8.83543256 37.36692093 -8.83543256 37.36692093 -7.1875 28.4375 C-7.01371826 27.46659424 -6.83993652 26.49568848 -6.66088867 25.49536133 C-3.10447105 6.2089421 -3.10447105 6.2089421 0 0 Z " fill="#256DD6" transform="translate(18,184)"/>
<path d="M0 0 C34.98 0 69.96 0 106 0 C110.6777274 15.20261404 110.6777274 15.20261404 112.125 22.75 C112.28967773 23.59127441 112.45435547 24.43254883 112.62402344 25.29931641 C114.55194171 35.46001836 116 45.64709573 116 56 C83 56 50 56 16 56 C15.01 50.06 14.02 44.12 13 38 C12.26906378 34.7744492 11.54199228 31.66068868 10.625 28.5 C10.41439941 27.75645264 10.20379883 27.01290527 9.98681641 26.24682617 C8.28142983 20.46001589 5.92814545 15.27267428 3 10 C0 3.73705179 0 3.73705179 0 0 Z " fill="#256DD6" transform="translate(388,184)"/>
<path d="M0 0 C7.45562703 5.48834393 11.06928759 12.68180708 12.68066406 21.68115234 C13.4659242 26.97521208 14.02320913 32.28114038 14.3125 37.625 C14.36720459 38.5845459 14.42190918 39.5440918 14.47827148 40.53271484 C14.75203906 49.57888714 13.02194094 57.79522535 10.875 66.5 C10.38236068 68.55100799 9.89389329 70.60294526 9.40794373 72.6555481 C8.96870602 74.50240079 8.51899868 76.34675451 8.06860352 78.19091797 C3.94660473 96.91227246 6.95239347 114.90128 10.89453125 133.34863281 C16.44099436 159.33588769 16.44099436 159.33588769 12.3125 168.625 C10.6625 168.295 9.0125 167.965 7.3125 167.625 C7.36470703 166.80829834 7.41691406 165.99159668 7.47070312 165.15014648 C7.92402416 151.91838901 4.94245162 139.53118022 2.15771484 126.66137695 C-2.02657481 107.15841235 -2.42899436 91.97232235 2.27554321 72.57952881 C6.92392222 53.14895739 12.23391367 30.0390395 1.3125 11.625 C0.77471924 11.0892334 0.23693848 10.5534668 -0.31713867 10.00146484 C-1.6875 8.625 -1.6875 8.625 -1.6875 6.625 C-2.409375 6.33625 -3.13125 6.0475 -3.875 5.75 C-5.60913994 5.05634402 -7.33535426 4.34196599 -9.046875 3.59423828 C-11.71034463 2.61661491 -13.93156273 2.23396521 -16.75 1.9921875 C-17.71292969 1.90839844 -18.67585937 1.82460937 -19.66796875 1.73828125 C-20.66441406 1.65964844 -21.66085937 1.58101562 -22.6875 1.5 C-23.65300781 1.41363281 -24.61851562 1.32726562 -25.61328125 1.23828125 C-37.75078798 0.22548268 -49.43812498 0.60546733 -61.51171875 2.15625 C-63.41290215 2.38930847 -63.41290215 2.38930847 -65.35249329 2.6270752 C-69.36095567 3.11898798 -73.36805432 3.6209354 -77.375 4.125 C-81.39265754 4.62895578 -85.41069275 5.12934874 -89.42964172 5.6229248 C-91.91799072 5.92865389 -94.40566574 6.23993861 -96.89250183 6.55773926 C-105.76585495 7.65000848 -114.28089929 7.95138563 -123.1875 7.125 C-133.17221045 6.32996451 -141.06169539 6.55059853 -150.6875 9.625 C-150.6875 10.285 -150.6875 10.945 -150.6875 11.625 C-151.3475 11.625 -152.0075 11.625 -152.6875 11.625 C-153.37524405 12.94758472 -154.03461373 14.28486503 -154.6875 15.625 C-155.1825 16.615 -155.6775 17.605 -156.1875 18.625 C-160.09943225 27.94966869 -160.0153629 38.43450332 -159.9375 48.375 C-159.93218262 49.61072754 -159.92686523 50.84645508 -159.92138672 52.11962891 C-159.8417835 59.78874427 -159.38402208 67.16320843 -158.25390625 74.75 C-155.32581863 94.78215807 -154.59528941 115.22982338 -153.19242859 135.41441345 C-152.92939316 139.19771466 -152.66334885 142.98062046 -152.37988281 146.76245117 C-151.61292436 157.06657891 -151.15095832 167.18936935 -152.453125 177.47265625 C-153.15746893 183.94088133 -153.80975607 190.21453891 -149.6875 195.625 C-141.88940358 200.9077697 -133.74457866 200.35955086 -124.69581604 200.55340576 C-122.7610501 200.59945082 -120.82644962 200.65352103 -118.89219666 200.71759033 C-101.82603271 201.26887432 -85.93198425 199.28981372 -69.1875 196.125 C-65.66881911 195.4760451 -62.14914236 194.8334944 -58.62780762 194.19909668 C-56.46566131 193.80799387 -54.30509978 193.40797773 -52.14660645 192.99719238 C-44.20340262 191.53631698 -36.86434051 190.97912728 -28.875 192.625 C-20.18178462 194.1662716 -11.53040242 195.26671776 -3.6875 190.625 C1.39532386 186.63135268 3.6856938 181.38161785 6.3125 175.625 C7.9625 175.625 9.6125 175.625 11.3125 175.625 C12.00273612 182.11321954 10.21469382 186.42207491 6.3125 191.625 C0.43836236 197.51216234 -7.7942796 201.76315427 -16.1875 202 C-19.29717588 201.85963269 -22.16093123 201.33051772 -25.1875 200.625 C-41.43566525 197.19123767 -57.66768714 201.05722751 -73.63867188 204.20703125 C-88.39336108 207.08934263 -102.43598058 208.17255302 -117.46826172 207.71923828 C-120.69898632 207.62466376 -123.92842173 207.57392466 -127.16015625 207.52734375 C-129.211004 207.47932312 -131.26179194 207.42865563 -133.3125 207.375 C-134.24199463 207.36122314 -135.17148926 207.34744629 -136.12915039 207.33325195 C-143.70443777 207.05165568 -149.24693908 204.88727203 -155 199.9375 C-158.35959029 196.20053107 -160.12059243 192.64520557 -160.6875 187.625 C-160.44824212 184.16096203 -160.09965345 180.78231773 -159.55273438 177.35620117 C-157.677915 165.37582128 -158.88677422 153.27085509 -159.89453125 141.2578125 C-160.02225733 139.69159071 -160.14958247 138.12533619 -160.27653503 136.55905151 C-160.54318284 133.28274491 -160.81328585 130.00674903 -161.08618164 126.73095703 C-161.42739758 122.63416108 -161.76215347 118.53687287 -162.09451485 114.43935013 C-163.70460493 94.56783913 -163.70460493 94.56783913 -165.55615234 74.71777344 C-165.62639335 74.01008505 -165.69663435 73.30239666 -165.76900387 72.57326317 C-166.09809254 69.27250419 -166.43490281 65.97294381 -166.78291321 62.67410278 C-168.60068276 44.84950971 -169.66814475 23.15955653 -158.16796875 8.15625 C-153.01874135 2.83040002 -146.1803562 -0.24169329 -138.81738281 -0.52270508 C-137.34156097 -0.48910246 -135.86593907 -0.4457919 -134.390625 -0.39453125 C-132.71194664 -0.36026272 -131.03323266 -0.32770761 -129.35449219 -0.29663086 C-128.47192749 -0.27792938 -127.58936279 -0.25922791 -126.68005371 -0.23995972 C-102.73425784 0.21807677 -79.07002768 -1.81683323 -55.46948242 -5.93676758 C-39.21320768 -8.497541 -14.39971434 -8.77751512 0 0 Z " fill="#030404" transform="translate(332.6875,155.375)"/>
<path d="M0 0 C0.91104492 0.00483398 1.82208984 0.00966797 2.76074219 0.01464844 C5.48669502 0.03850172 8.21186315 0.07750976 10.9375 0.125 C12.11578369 0.14385254 12.11578369 0.14385254 13.31787109 0.16308594 C22.76006524 0.36614388 30.778682 1.02440107 38.375 7.0625 C42.21812593 12.13542622 42.50580023 17.67511316 43.0625 23.8125 C43.19205078 25.08383789 43.19205078 25.08383789 43.32421875 26.38085938 C43.57143053 28.9608871 43.76668826 31.53884596 43.9375 34.125 C43.99510498 34.87894043 44.05270996 35.63288086 44.11206055 36.40966797 C44.45501979 44.76235651 42.32321354 52.7854326 40.5 60.875 C40.0087601 63.09947347 39.52044103 65.32456935 39.03294373 67.54986572 C38.59128488 69.55871651 38.14265126 71.56603015 37.69360352 73.57324219 C33.48136268 93.36002932 36.78608793 111.5965586 41.09155273 131.04833984 C42.95180964 139.52697213 44.54443254 147.38882065 43.9375 156.125 C43.91171875 157.39730469 43.8859375 158.66960937 43.859375 159.98046875 C43.46178756 167.68824341 42.91362822 173.91622598 37.46875 179.6796875 C32.7829461 183.5918917 27.92023243 184.3093419 21.9375 184.125 C18.77777045 183.7107424 15.65085751 183.18115776 12.51098633 182.63769531 C1.61147441 181.07392029 -8.75972091 182.45506639 -19.45108032 184.51873779 C-23.17591016 185.23625187 -26.90896079 185.90895447 -30.640625 186.58984375 C-31.73701042 186.79169281 -31.73701042 186.79169281 -32.85554504 186.99761963 C-38.84752345 188.09827787 -44.84764971 189.11071881 -50.875 190 C-51.63562744 190.11964111 -52.39625488 190.23928223 -53.17993164 190.36254883 C-64.40329964 191.96977571 -75.80179331 191.10966263 -87.0625 190.3125 C-88.84333984 190.20711914 -88.84333984 190.20711914 -90.66015625 190.09960938 C-91.80355469 190.01904297 -92.94695312 189.93847656 -94.125 189.85546875 C-95.14722656 189.78739014 -96.16945312 189.71931152 -97.22265625 189.64916992 C-101.10947355 188.93175273 -104.03149055 187.5268111 -106.3984375 184.30859375 C-107.27896796 181.41320242 -107.01584369 179.19731718 -106.6875 176.1875 C-105.02497725 157.52780394 -106.41638903 138.88290714 -107.8125 120.25 C-107.99189904 117.77718368 -108.17126056 115.30436463 -108.35058594 112.83154297 C-109.53633847 96.76400523 -110.95572565 80.73215459 -112.84277344 64.73095703 C-114.40314792 51.18062268 -115.11206011 37.39306379 -112.875 23.875 C-112.77380859 23.10027344 -112.67261719 22.32554687 -112.56835938 21.52734375 C-111.52406286 14.90029452 -109.00746751 11.6371945 -103.8828125 7.265625 C-99.58984759 5.52941205 -95.52085221 5.77041876 -90.9375 5.875 C-89.49479736 5.89143555 -89.49479736 5.89143555 -88.02294922 5.90820312 C-78.69028534 6.04907352 -69.37553708 6.52277127 -60.0625 7.125 C-59.5675 9.6 -59.5675 9.6 -59.0625 12.125 C-66.37236494 15.28602268 -73.98924422 14.42403302 -81.69140625 13.3671875 C-85.04205702 13.0249464 -88.38524254 12.85044052 -91.75 12.75 C-93.01199219 12.70101562 -94.27398437 12.65203125 -95.57421875 12.6015625 C-99.95073074 13.25828434 -101.322773 14.73973436 -104.0625 18.125 C-105.63034369 21.26068739 -105.72476015 24.67997257 -106.125 28.125 C-106.21587891 28.84300781 -106.30675781 29.56101563 -106.40039062 30.30078125 C-107.59850836 40.44424415 -106.86634553 50.21433225 -105.76171875 60.33984375 C-105.4821 63.01912369 -105.20443633 65.69849475 -104.93115234 68.37841797 C-104.85949891 69.08076978 -104.78784548 69.78312159 -104.71402073 70.50675678 C-103.36562896 83.8916562 -102.34160129 97.30802774 -101.27270508 110.7175293 C-100.93876334 114.90392276 -100.59725206 119.08966332 -100.25397205 123.27530003 C-99.98527364 126.56527884 -99.72136885 129.85562972 -99.45877647 133.146101 C-99.33484789 134.69012661 -99.20931017 136.23402411 -99.08197975 137.7777729 C-98.08960562 149.84644251 -97.27598848 161.85046054 -99.125 173.875 C-99.48542921 176.29278602 -99.79936651 178.69328356 -100.0625 181.125 C-96.76916005 184.41833995 -84.64674697 182.96877107 -80.0625 183.125 C-79.09022461 183.16044922 -78.11794922 183.19589844 -77.11621094 183.23242188 C-58.98611994 183.810979 -42.0427541 181.54678882 -24.3046875 177.96875 C-8.72080009 174.86908722 6.3292123 173.33533344 21.9375 177.125 C26.0119492 177.59512875 27.51379127 177.34500261 31.1875 175.4375 C34.65787284 172.51923193 35.61979198 170.04923158 36.3515625 165.6171875 C36.42117188 164.75351562 36.49078125 163.88984375 36.5625 163 C36.63726562 162.15179688 36.71203125 161.30359375 36.7890625 160.4296875 C36.86253906 158.79386719 36.86253906 158.79386719 36.9375 157.125 C36.98479248 156.394021 37.03208496 155.66304199 37.08081055 154.90991211 C37.40938276 145.99116155 35.41011815 137.58275982 33.5 128.9375 C33.00769216 126.66920313 32.51865877 124.4002566 32.03294373 122.13053894 C31.73241221 120.73042083 31.4277672 119.33117617 31.11805725 117.93305969 C25.84375797 93.66089253 29.12004645 67.57736065 36.9375 44.125 C37.52114323 37.70492446 36.76213672 31.20383812 36.125 24.8125 C36.05498779 24.03575928 35.98497559 23.25901855 35.9128418 22.45874023 C35.4326489 18.02784764 34.81561521 14.70084011 31.9375 11.125 C21.16819997 3.49774519 -3.46627211 6.0530354 -15.8125 8 C-16.80765625 8.18046875 -17.8028125 8.3609375 -18.828125 8.546875 C-29.86104242 10.51894237 -40.85095865 11.47596999 -52.0625 11.125 C-52.5575 9.145 -52.5575 9.145 -53.0625 7.125 C-49.58553446 4.80702298 -47.43004546 4.59717547 -43.3046875 4.08984375 C-42.64220001 4.00626114 -41.97971252 3.92267853 -41.29714966 3.83656311 C-39.17811555 3.57108101 -37.05791294 3.3167086 -34.9375 3.0625 C-33.53376502 2.88808577 -32.13011791 2.71296276 -30.7265625 2.53710938 C-28.02649152 2.20046452 -25.3257035 1.87123474 -22.6237793 1.54980469 C-20.55400287 1.30291287 -18.48479017 1.05099342 -16.41723633 0.78613281 C-10.93395447 0.10773889 -5.52252191 -0.03092118 0 0 Z " fill="#020301" transform="translate(291.0625,160.875)"/>
<path d="M0 0 C1.43182617 0.08024414 1.43182617 0.08024414 2.89257812 0.16210938 C9.94934589 0.71454524 15.21824985 2.74539764 21.3125 6.3125 C21.3125 6.9725 21.3125 7.6325 21.3125 8.3125 C22.3025 8.6425 23.2925 8.9725 24.3125 9.3125 C25.4453125 11.0546875 25.4453125 11.0546875 26.4375 13.1875 C26.93636719 14.23550781 26.93636719 14.23550781 27.4453125 15.3046875 C35.64056722 34.27928626 30.24081793 55.91316734 25.61572266 74.98242188 C20.94213705 94.4105259 22.61593996 109.98038341 26.8125 129.375 C31.9148327 152.99754479 31.9148327 152.99754479 31.27539062 164.64233398 C31.00433837 167.46914653 31.00433837 167.46914653 33.3125 169.3125 C32.9375 172.4375 32.9375 172.4375 32.3125 175.3125 C31.3225 175.3125 30.3325 175.3125 29.3125 175.3125 C29.250625 175.9725 29.18875 176.6325 29.125 177.3125 C27.33596778 183.91815742 23.66556769 188.58234996 18.05859375 192.40234375 C10.18419551 196.50689585 -0.3206491 194.45674396 -8.60546875 192.75 C-17.74428696 191.45272796 -26.32007311 193.08970625 -35.29449463 194.70623779 C-37.66085732 195.1314431 -40.02901587 195.54494162 -42.39794922 195.95556641 C-48.64479447 197.04195331 -54.88794025 198.13390505 -61.10546875 199.37890625 C-73.61593007 201.83081728 -85.97830282 201.6353245 -98.6875 201.3125 C-100.1422876 201.28929687 -100.1422876 201.28929687 -101.62646484 201.265625 C-104.33547065 201.22063892 -107.04198567 201.14752561 -109.75 201.0625 C-110.54003418 201.04864258 -111.33006836 201.03478516 -112.14404297 201.02050781 C-117.6419879 200.7812092 -122.11418702 199.45353722 -126.6875 196.3125 C-130.65334441 191.89099958 -131.12989721 187.64163118 -130.89453125 181.8359375 C-130.70846857 179.56807912 -130.46866672 177.32022682 -130.1875 175.0625 C-128.66946512 162.60602136 -130.05418136 150.00037492 -131.125 137.5625 C-131.39785834 134.33881341 -131.66693858 131.11483037 -131.93359375 127.890625 C-132.03352882 126.69338303 -132.03352882 126.69338303 -132.13548279 125.47195435 C-132.57566831 120.07017825 -132.89177286 114.67069925 -133.15625 109.2578125 C-133.57614186 100.89478552 -134.49165241 92.62552309 -135.47384644 84.31280518 C-141.95007231 28.60824499 -141.95007231 28.60824499 -132.125 13.8125 C-131.320625 12.9875 -130.51625 12.1625 -129.6875 11.3125 C-129.0275 11.3125 -128.3675 11.3125 -127.6875 11.3125 C-127.6875 10.6525 -127.6875 9.9925 -127.6875 9.3125 C-117.72091346 3.9815351 -108.13997496 5.0746415 -97.15625 6.09375 C-88.03609125 6.66889515 -79.31686993 5.93843642 -70.26171875 4.78125 C-67.66472185 4.46217197 -65.06771637 4.14316372 -62.47070312 3.82421875 C-59.09593966 3.40461244 -55.72156824 2.9818952 -52.34741211 2.55743408 C-47.73656593 1.97745781 -43.12437465 1.40919705 -38.51171875 0.84375 C-37.31963303 0.69063354 -36.1275473 0.53751709 -34.89933777 0.37976074 C-23.21593561 -1.04656558 -11.71944942 -0.90519329 0 0 Z M-46.5 7.1875 C-47.24328552 7.27454193 -47.98657104 7.36158386 -48.75238037 7.45126343 C-59.88477641 8.6056303 -59.88477641 8.6056303 -70.6875 11.3125 C-71.0175 12.3025 -71.3475 13.2925 -71.6875 14.3125 C-73.15509766 13.83683594 -73.15509766 13.83683594 -74.65234375 13.3515625 C-78.84919762 12.15907132 -82.9052093 11.86077685 -87.25 11.6875 C-88.05993408 11.65390381 -88.86986816 11.62030762 -89.7043457 11.58569336 C-91.4455933 11.51967057 -93.18707296 11.45955163 -94.92871094 11.40478516 C-96.81524786 11.34167799 -98.70137238 11.26520417 -100.58691406 11.17724609 C-103.51611065 11.04401271 -106.44390718 10.954761 -109.375 10.875 C-110.28258057 10.82843262 -111.19016113 10.78186523 -112.12524414 10.73388672 C-118.14961079 10.63681849 -121.46663247 11.88459288 -126.11694336 15.72851562 C-134.14802306 23.82825838 -132.85606323 39.40350717 -132.84527588 50.11825562 C-132.77867364 57.52295069 -132.07245094 64.79110187 -131.20593262 72.13873291 C-129.2790104 88.64024986 -127.90647147 105.18252197 -126.70495605 121.75091553 C-126.52915213 124.17417719 -126.35060385 126.59724161 -126.16906738 129.02008057 C-124.79077857 147.50489332 -123.52170109 166.03682412 -125.76171875 184.5 C-125.66972848 187.98594719 -124.83080782 189.58723443 -122.6875 192.3125 C-119.46126301 194.34751102 -116.61752818 194.67631043 -112.84765625 194.9453125 C-111.70103516 195.02910156 -110.55441406 195.11289062 -109.37304688 195.19921875 C-108.17744141 195.27785156 -106.98183594 195.35648438 -105.75 195.4375 C-104.00879883 195.56705078 -104.00879883 195.56705078 -102.23242188 195.69921875 C-98.71835202 195.9456143 -95.20612061 196.14373111 -91.6875 196.3125 C-90.65834473 196.362854 -89.62918945 196.41320801 -88.56884766 196.46508789 C-78.83884269 196.71045323 -69.49651711 195.10294163 -59.9375 193.5 C-58.31004377 193.23541655 -56.68243971 192.97174077 -55.0546875 192.70898438 C-48.67837201 191.6728191 -42.30727964 190.61460342 -35.95214844 189.45483398 C-34.81202301 189.24791679 -34.81202301 189.24791679 -33.64886475 189.03681946 C-32.22830587 188.77728938 -30.80850504 188.51355542 -29.38970947 188.24455261 C-20.43954527 186.60625423 -11.87299534 186.85095523 -2.9375 188.375 C4.6931886 189.64523613 11.12717882 190.1910184 17.75 185.6875 C23.56847843 180.6901778 24.38792954 175.93955974 25 168.5625 C25.14319545 166.14783159 25.24209971 163.73038591 25.3125 161.3125 C25.36486816 160.57813721 25.41723633 159.84377441 25.47119141 159.0871582 C25.85623184 150.3304567 23.77061404 142.13415139 21.89096069 133.64581299 C15.57741956 104.76839865 17.03037105 80.83920509 24.83203125 52.21875 C26.09389194 44.58603166 25.24328057 36.71770458 24.5 29.0625 C24.42974609 28.20398438 24.35949219 27.34546875 24.28710938 26.4609375 C23.65568319 19.89410521 22.3563816 15.31096201 17.5 10.5625 C9.92940495 5.21855056 1.22252032 5.63332827 -7.6875 5.3125 C-8.42822754 5.27850098 -9.16895508 5.24450195 -9.93212891 5.20947266 C-22.25219374 4.68853409 -34.2815945 5.74392657 -46.5 7.1875 Z " fill="#6CD29F" transform="translate(309.6875,155.6875)"/>
<path d="M0 0 C3.6578218 2.03993908 5.66946174 3.50419262 8 7 C9.31727629 13.91190624 9.18608163 20.85200592 9.18530273 27.8581543 C9.18747019 30.03259434 9.20561188 32.20651003 9.22460938 34.38085938 C9.29880463 52.58886701 7.13217536 68.31010042 -5.94921875 82.046875 C-12.38057445 87.96018436 -19.85547638 92.43785823 -28.81640625 92.2734375 C-35.21843882 91.47175185 -39.92779472 87.82819124 -43.80859375 82.84765625 C-47.05168922 77.8182 -47.35062056 72.95265293 -46.55859375 67.203125 C-45.97800358 64.91324487 -45.16498752 63.25941017 -43.9375 61.25 C-41.92475372 57.87378043 -41.89603626 56.7426947 -42 53 C-40.31477231 50.47215847 -39.15782234 50.03857879 -36.1875 49.3125 C-29.20005385 46.43531629 -26.09284202 38.80252688 -23.21484375 32.19140625 C-21.8034223 28.48358849 -20.64091432 24.73536847 -19.5 20.9375 C-14.65715674 4.92219849 -14.65715674 4.92219849 -9.0625 0.875 C-5.70790032 -0.08345705 -3.46198747 -0.50487317 0 0 Z " fill="#D6EAFC" transform="translate(298,233)"/>
<path d="M0 0 C0.89009766 0.00604248 1.78019531 0.01208496 2.69726562 0.01831055 C25.34856081 0.35272928 25.34856081 0.35272928 31.6875 5.25 C35.08569967 9.44238566 35.40218016 13.74515739 35.875 18.9375 C35.95685547 19.68966797 36.03871094 20.44183594 36.12304688 21.21679688 C36.3603891 23.56030206 36.53905557 25.89922825 36.6875 28.25 C36.73712891 29.02754639 36.78675781 29.80509277 36.83789062 30.60620117 C37.07507886 37.7659596 35.54419326 44.27280855 33.8125 51.1875 C30.97042116 62.82098539 28.29132726 73.96964719 28.3125 86 C28.31491699 87.47774902 28.31491699 87.47774902 28.31738281 88.98535156 C28.53819139 102.62785794 31.47291598 115.78402345 34.40063477 129.05566406 C36.0548232 136.58714866 37.29628227 143.4941139 36.6875 151.25 C36.62175781 152.68279297 36.62175781 152.68279297 36.5546875 154.14453125 C36.13308449 160.99099754 35.26615078 165.73581549 30.1875 170.6875 C24.58733117 173.18757537 19.20396312 172.02818568 13.33984375 170.73046875 C-4.98436944 167.41106047 -24.03308551 172.52240485 -41.97103882 176.06956482 C-48.58571761 177.36269383 -55.13380605 178.37419148 -61.89453125 178.3828125 C-62.90056396 178.38490723 -63.90659668 178.38700195 -64.94311523 178.38916016 C-65.99313721 178.3844873 -67.04315918 178.37981445 -68.125 178.375 C-69.21562744 178.37161621 -70.30625488 178.36823242 -71.42993164 178.36474609 C-78.37507964 178.3211329 -85.3115911 178.18813323 -92.25 177.875 C-93.04188721 177.84422363 -93.83377441 177.81344727 -94.6496582 177.78173828 C-100.0721025 177.4903975 -100.0721025 177.4903975 -102.3125 175.25 C-102.12609668 172.75760718 -101.83855437 170.39683917 -101.4375 167.9375 C-99.37335257 155.18310755 -100.4636763 142.43004828 -101.51953125 129.62890625 C-101.64723337 128.03786617 -101.77455922 126.44679584 -101.90153503 124.85569763 C-102.16819078 121.52812138 -102.43831574 118.20085195 -102.71118164 114.8737793 C-103.05275794 110.70745128 -103.38734858 106.54060174 -103.71951485 102.37351418 C-105.30413949 82.42546704 -105.30413949 82.42546704 -107.18115234 62.50341797 C-107.25139335 61.81460887 -107.32163435 61.12579977 -107.39400387 60.41611767 C-107.72219517 57.22066518 -108.0595431 54.02646402 -108.40791321 50.83314514 C-109.42045175 41.28139869 -109.61762431 32.04887503 -108.5625 22.5 C-108.4696875 21.42685547 -108.4696875 21.42685547 -108.375 20.33203125 C-107.82946721 15.37677505 -106.52164143 12.2198268 -103.3125 8.25 C-99.57348425 5.75732284 -97.58050683 6.01334195 -93.125 6.0625 C-92.44663086 6.06894531 -91.76826172 6.07539063 -91.06933594 6.08203125 C-87.70348985 6.13373892 -84.39485983 6.26997322 -81.0625 6.75 C-74.42179343 7.63542754 -67.86360209 7.73727723 -61.3125 6.25 C-60.9825 5.26 -60.6525 4.27 -60.3125 3.25 C-58.0025 3.25 -55.6925 3.25 -53.3125 3.25 C-53.3125 3.91 -53.3125 4.57 -53.3125 5.25 C-49.27760804 4.86410425 -45.2432308 4.47321504 -41.20922852 4.078125 C-39.84314366 3.94498893 -38.47693582 3.81310755 -37.1105957 3.68261719 C-30.19329446 3.02116139 -23.32830517 2.29495259 -16.46875 1.1640625 C-10.93757247 0.27842752 -5.59614094 -0.06250546 0 0 Z M-40.3125 9.25 C-40.96805119 11.77733235 -40.96805119 11.77733235 -41.3125 14.25 C-42.6325 14.25 -43.9525 14.25 -45.3125 14.25 C-45.9725 12.93 -46.6325 11.61 -47.3125 10.25 C-48.8332267 10.22246169 -50.35410674 10.20336625 -51.875 10.1875 C-52.72191406 10.17589844 -53.56882813 10.16429687 -54.44140625 10.15234375 C-57.40132636 10.19878298 -57.40132636 10.19878298 -60.65234375 10.74609375 C-64.56068714 11.28416877 -68.37740419 11.39761549 -72.3125 11.375 C-72.98539063 11.37886719 -73.65828125 11.38273438 -74.3515625 11.38671875 C-78.76238681 11.37820365 -82.95793617 10.90901432 -87.3125 10.25 C-89.20567897 10.11960887 -91.10261403 10.03248022 -93 10 C-93.91136719 9.97421875 -94.82273438 9.9484375 -95.76171875 9.921875 C-98.85299045 10.3195271 -100.13496093 11.03348932 -102.3125 13.25 C-108.83811277 29.59481311 -104.17493183 52.15184568 -102.29669189 69.15649414 C-100.52217205 85.26755056 -99.22624613 101.39646748 -98.0625 117.5625 C-97.92962585 119.3559082 -97.92962585 119.3559082 -97.79406738 121.18554688 C-95.2218652 156.04758033 -95.2218652 156.04758033 -97.3125 172.25 C-93.63150391 173.4769987 -90.09163491 173.61169475 -86.25 173.8125 C-85.20875977 173.87727539 -85.20875977 173.87727539 -84.14648438 173.94335938 C-81.5356194 174.08651385 -78.92608671 174.16969544 -76.3125 174.25 C-75.07113281 174.30454346 -73.82976562 174.35908691 -72.55078125 174.4152832 C-59.2263823 174.83029543 -46.51896985 172.63978705 -33.4375 170.3125 C-31.2411152 169.93421029 -29.04450114 169.55724919 -26.84765625 169.18164062 C-22.85942736 168.4949324 -18.87193599 167.80465904 -14.88720703 167.09790039 C-14.09766632 166.95800186 -13.30812561 166.81810333 -12.49465942 166.67396545 C-11.06076048 166.39537737 -9.63437493 166.07415518 -8.22042847 165.70750427 C-0.63324123 163.88816427 7.804241 165.07910787 15.30078125 166.7890625 C19.34008997 167.56915813 23.64178327 168.12595335 27.6875 167.25 C31.38100643 163.46539812 31.45404858 159.30974768 31.6875 154.25 C31.73745117 153.21319092 31.78740234 152.17638184 31.83886719 151.1081543 C32.0841991 140.66350883 30.41872038 131.06323678 28.25 120.875 C27.59942682 117.74341658 26.95649068 114.61030526 26.31640625 111.4765625 C26.16500687 110.73874542 26.01360748 110.00092834 25.85762024 109.24075317 C21.67231035 88.54791023 24.86008981 69.80003913 29.40063477 49.47607422 C31.15673481 41.58121062 32.24255751 34.37996005 31.6875 26.25 C31.63207031 25.02925781 31.57664062 23.80851562 31.51953125 22.55078125 C31.4085381 15.04554836 31.4085381 15.04554836 28.6875 8.25 C21.29208131 3.31972088 9.56664437 5.02065017 1 5 C-0.00889786 4.99699387 -0.00889786 4.99699387 -1.03817749 4.993927 C-21.20911716 4.37769087 -21.20911716 4.37769087 -40.3125 9.25 Z " fill="#9FE22E" transform="translate(292.3125,166.75)"/>
<path d="M0 0 C5.67084097 4.33942613 9.26065398 10.24647081 10.4921875 17.30078125 C10.85748624 25.1303509 8.0528153 31.41788457 3.359375 37.5625 C-1.71651055 43.00546954 -7.55331586 44.95458248 -14.890625 45.3125 C-22.71565926 45.0134541 -29.03291341 42.176965 -34.390625 36.4375 C-39.42061774 29.82583816 -40.95013429 22.98206321 -39.953125 14.75 C-37.33126688 6.88442563 -33.30648542 0.71065145 -25.953125 -3.25 C-16.4091997 -6.87594012 -8.45449741 -5.41087834 0 0 Z " fill="#FD9638" transform="translate(233.953125,211.25)"/>
<path d="M0 0 C2.01670905 1.20859514 3.84890145 2.35133548 5.578125 3.9453125 C5.578125 4.6053125 5.578125 5.2653125 5.578125 5.9453125 C6.238125 5.9453125 6.898125 5.9453125 7.578125 5.9453125 C10.0707397 12.275097 11.02608848 17.77365277 10.9765625 24.5546875 C10.97943268 25.4433551 10.98230286 26.33202271 10.98526001 27.24761963 C10.98728851 29.11658368 10.9818443 30.98556955 10.96923828 32.85449219 C10.95324403 35.67432653 10.96908897 38.492711 10.98828125 41.3125 C11.01035792 59.92641499 8.22101372 77.08543947 -5.421875 90.9453125 C-7.66796875 92.22265625 -7.66796875 92.22265625 -9.421875 92.9453125 C-9.421875 93.6053125 -9.421875 94.2653125 -9.421875 94.9453125 C-18.40091535 101.47552367 -26.37645284 103.85581352 -37.421875 102.9453125 C-44.61431731 100.99481967 -50.99550827 95.9222184 -54.8828125 89.55078125 C-58.06603589 82.38288461 -58.71131669 75.18307877 -56.234375 67.6953125 C-54.59911983 63.82730509 -52.26064337 61.01425128 -49.421875 57.9453125 C-48.101875 58.6053125 -46.781875 59.2653125 -45.421875 59.9453125 C-45.83443505 62.83323283 -46.2890646 64.7460969 -47.921875 67.1953125 C-50.80280729 72.4770217 -50.99707763 77.86679299 -49.421875 83.6328125 C-47.23956005 89.35888659 -43.18912778 92.38429811 -37.984375 95.3203125 C-30.45509014 97.15672344 -25.00107309 95.72246711 -18.421875 91.9453125 C-8.82231115 85.86289978 -1.90145804 76.78597706 1.578125 65.9453125 C3.5073316 56.40403279 3.89640036 46.97986938 3.83886719 37.28442383 C3.82804641 35.11707163 3.83888949 32.95053209 3.8515625 30.78320312 C4.36611386 18.09280287 4.36611386 18.09280287 -0.984375 7.3203125 C-5.33621746 5.57957552 -8.96416426 5.38916621 -13.421875 6.9453125 C-17.27851915 9.95696158 -18.68260863 13.37867976 -20.421875 17.8828125 C-20.6796875 18.5430542 -20.9375 19.2032959 -21.203125 19.88354492 C-22.82763575 24.12199501 -24.17704057 28.39051839 -25.421875 32.7578125 C-27.97139224 41.36904499 -32.47128199 48.29464972 -38.421875 54.9453125 C-40.071875 54.6153125 -41.721875 54.2853125 -43.421875 53.9453125 C-42.90687453 49.43905838 -41.25406247 47.40687496 -38.421875 43.9453125 C-34.41241367 38.08131206 -32.31693886 31.79174794 -30.29711914 25.04638672 C-24.5987327 6.11110025 -24.5987327 6.11110025 -15.734375 0.1328125 C-10.416136 -1.77372601 -5.28219717 -2.30031167 0 0 Z " fill="#020202" transform="translate(302.421875,228.0546875)"/>
<path d="M0 0 C11.23371211 -0.41756004 21.34740885 1.88851017 30.0703125 9.19140625 C27.88220635 11.63291282 25.9827343 12.83880267 22.9375 14.0234375 C22.13530029 14.34425293 21.33310059 14.66506836 20.5065918 14.99560547 C19.66136963 15.32834473 18.81614746 15.66108398 17.9453125 16.00390625 C11.77147164 18.50351657 6.18253991 21.03033066 0.80078125 25.015625 C-1.5873759 26.63827805 -4.20213664 27.30495222 -6.9296875 28.19140625 C-7.2596875 29.18140625 -7.5896875 30.17140625 -7.9296875 31.19140625 C-9.6015625 32.40234375 -9.6015625 32.40234375 -11.6796875 33.56640625 C-14.56764347 35.25792332 -16.31113438 36.59019163 -18.6796875 39.06640625 C-20.9296875 41.19140625 -20.9296875 41.19140625 -22.9296875 41.25390625 C-28.74207649 38.1660746 -31.8252151 34.35852324 -33.9296875 28.19140625 C-34.91752475 23.04267875 -33.92376599 18.68565521 -31.37890625 14.140625 C-25.54812418 6.29814453 -16.46745671 2.28080347 -7.1171875 0.44140625 C-4.74663769 0.25576078 -2.37307667 0.15504101 0 0 Z " fill="#266ED6" transform="translate(177.9296875,103.80859375)"/>
<path d="M0 0 C3.10352458 1.60923497 5.21701424 3.00347267 7.375 5.75 C8.79094075 10.84738671 8.75200878 14.57953896 6.3125 19.1875 C4 22 4 22 1.5 24.25 C-0.98033222 26.97836544 -1.72772765 28.60661367 -2.9375 32 C-4.79836904 36.9945725 -6.42476505 39.21897483 -11 42 C-15.12812332 43.17946381 -17.21029313 43.28854674 -21.25 41.8125 C-24.66860702 39.55932719 -26.43864556 38.12357339 -27.50390625 34.09375 C-28.97034511 25.32598926 -26.27526202 18.46835004 -21.375 11.25 C-15.67959817 3.89604709 -9.6762784 -1.58627515 0 0 Z " fill="#030201" transform="translate(307,175)"/>
<path d="M0 0 C5.67084097 4.33942613 9.26065398 10.24647081 10.4921875 17.30078125 C10.85748624 25.1303509 8.0528153 31.41788457 3.359375 37.5625 C-1.71651055 43.00546954 -7.55331586 44.95458248 -14.890625 45.3125 C-22.71565926 45.0134541 -29.03291341 42.176965 -34.390625 36.4375 C-39.42061774 29.82583816 -40.95013429 22.98206321 -39.953125 14.75 C-37.33126688 6.88442563 -33.30648542 0.71065145 -25.953125 -3.25 C-16.4091997 -6.87594012 -8.45449741 -5.41087834 0 0 Z M-31.39453125 9.6484375 C-33.97031436 14.18971365 -34.92522747 18.59885908 -33.953125 23.75 C-32.04846389 29.72319757 -28.54511935 34.7579735 -22.953125 37.75 C-17.09045522 39.30754511 -11.33668653 39.39269401 -5.7421875 36.90625 C-1.52447782 34.18039396 1.46759437 30.48784189 3.046875 25.75 C3.73998456 18.71664231 3.58265616 12.44549794 -0.953125 6.75 C-5.0631459 2.69925825 -9.17916472 1.38990855 -14.890625 1.0625 C-21.96320605 1.3933287 -27.09050121 3.97971501 -31.39453125 9.6484375 Z " fill="#030301" transform="translate(233.953125,211.25)"/>
<path d="M0 0 C4.43087221 0.5063854 6.95723584 1.71052523 10 5 C12.34986325 12.58623671 12.30672546 20.14501006 12.26074219 28.0090332 C12.25010691 30.16581914 12.2606392 32.32175637 12.2734375 34.47851562 C12.2925382 52.63925434 10.09320274 68.35102558 -2.94921875 82.046875 C-7.26705246 86.01690678 -11.65448124 88.6136077 -17 91 C-17.33 90.34 -17.66 89.68 -18 89 C-17.443125 88.773125 -16.88625 88.54625 -16.3125 88.3125 C-5.24733042 82.03226861 0.00666797 69.60605247 3.59765625 58.08203125 C4.21064035 54.90998733 4.38230248 51.71945493 4.5625 48.5 C4.6251001 47.39362183 4.6251001 47.39362183 4.68896484 46.26489258 C6.98262457 22.07131358 6.98262457 22.07131358 0 0 Z " fill="#C1DFFB" transform="translate(295,233)"/>
<path d="M0 0 C0.88816406 -0.00128906 1.77632812 -0.00257813 2.69140625 -0.00390625 C3.61566406 -0.00003906 4.53992188 0.00382813 5.4921875 0.0078125 C6.42417969 0.00394531 7.35617188 0.00007812 8.31640625 -0.00390625 C9.20199219 -0.00261719 10.08757812 -0.00132812 11 0 C12.22033936 0.00169189 12.22033936 0.00169189 13.46533203 0.00341797 C15.3671875 0.1328125 15.3671875 0.1328125 16.3671875 1.1328125 C16.40782582 2.79898365 16.4099085 4.46669345 16.3671875 6.1328125 C12.68318166 7.36385405 9.45243774 7.04048502 5.6171875 6.6953125 C4.44671875 6.59347656 3.27625 6.49164063 2.0703125 6.38671875 C1.17828125 6.30292969 0.28625 6.21914062 -0.6328125 6.1328125 C-0.3028125 7.1228125 0.0271875 8.1128125 0.3671875 9.1328125 C1.18703125 9.18179688 2.006875 9.23078125 2.8515625 9.28125 C3.92921875 9.35601562 5.006875 9.43078125 6.1171875 9.5078125 C7.18453125 9.57742187 8.251875 9.64703125 9.3515625 9.71875 C12.16925182 10.1056348 13.9502241 10.68967416 16.3671875 12.1328125 C16.0371875 13.7828125 15.7071875 15.4328125 15.3671875 17.1328125 C14.48417969 17.08640625 13.60117188 17.04 12.69140625 16.9921875 C3.16313317 16.7056229 -4.59831277 17.77647934 -12.6328125 23.1328125 C-15.3203125 22.7578125 -15.3203125 22.7578125 -17.6328125 22.1328125 C-17.4453125 19.8203125 -17.4453125 19.8203125 -16.6328125 17.1328125 C-14.3828125 15.5078125 -14.3828125 15.5078125 -11.6328125 14.1328125 C-8.86839281 12.72521909 -8.86839281 12.72521909 -6.6328125 11.1328125 C-6.6328125 10.1428125 -6.6328125 9.1528125 -6.6328125 8.1328125 C-7.6846875 8.6484375 -8.7365625 9.1640625 -9.8203125 9.6953125 C-13.11805017 11.12969433 -15.1392493 11.29733357 -18.6328125 10.1328125 C-18.4375 7.7734375 -18.4375 7.7734375 -17.6328125 5.1328125 C-15.453125 3.8046875 -15.453125 3.8046875 -12.7578125 2.8828125 C-11.43136719 2.41101563 -11.43136719 2.41101563 -10.078125 1.9296875 C-9.27117187 1.66671875 -8.46421875 1.40375 -7.6328125 1.1328125 C-4.77444259 0.18002253 -2.9663669 0.00410124 0 0 Z " fill="#030402" transform="translate(212.6328125,184.8671875)"/>
<path d="M0 0 C5.06850465 3.07082041 7.8855526 5.99239308 9.3359375 11.890625 C10.16433445 19.08068568 9.73625737 24.06317436 5.3359375 29.890625 C1.26755381 33.85194596 -2.50835459 35.71638346 -8.2109375 36.03125 C-14.65780238 35.85315981 -18.50503182 34.44100218 -23.0703125 29.84765625 C-26.69195005 25.40049837 -28.33932184 20.77639829 -28.0703125 15.00390625 C-26.95283983 9.19089939 -23.84945012 4.33700228 -19.1015625 0.828125 C-13.10798147 -2.40614703 -6.26382021 -2.60839434 0 0 Z M-19.4140625 7.390625 C-23.12112283 11.50958092 -23.13683767 14.6345177 -23.05859375 20.0546875 C-22.52825154 23.86685028 -21.36551077 25.90206466 -18.6328125 28.5703125 C-14.87066813 31.09333789 -11.17079664 31.9671282 -6.6640625 31.890625 C-2.1054197 30.74315841 0.66065576 28.61655288 3.8359375 25.203125 C5.77107967 20.92968604 6.17154913 17.50717244 5.3359375 12.890625 C3.66274 9.50439724 3.66274 9.50439724 1.3359375 6.890625 C0.89636719 6.35824219 0.45679688 5.82585937 0.00390625 5.27734375 C-5.83619054 0.42199396 -14.40132895 2.8335945 -19.4140625 7.390625 Z " fill="#FB7B42" transform="translate(227.6640625,214.109375)"/>
<path d="M0 0 C0.763125 0.226875 1.52625 0.45375 2.3125 0.6875 C2.16294224 5.62290622 -0.45816871 7.90027239 -3.83203125 11.12109375 C-5.6875 12.6875 -5.6875 12.6875 -8.625 14.375 C-9.305625 14.808125 -9.98625 15.24125 -10.6875 15.6875 C-10.6875 17.0075 -10.6875 18.3275 -10.6875 19.6875 C-9.73875 19.0275 -8.79 18.3675 -7.8125 17.6875 C-4.6875 15.6875 -4.6875 15.6875 -2.6875 15.6875 C-2.6875 15.0275 -2.6875 14.3675 -2.6875 13.6875 C2.0625 12.5625 2.0625 12.5625 4.3125 13.6875 C4.02978004 16.98401472 3.71296021 18.33211003 1.1953125 20.56640625 C-6.46641261 25.24374835 -14.4435507 30.10165543 -23.6875 29.6875 C-24.0175 28.0375 -24.3475 26.3875 -24.6875 24.6875 C-22.0475 23.3675 -19.4075 22.0475 -16.6875 20.6875 C-17.71715595 19.42877744 -17.71715595 19.42877744 -19.9375 19.625 C-21.29875 19.6559375 -21.29875 19.6559375 -22.6875 19.6875 C-24.35373639 19.72536901 -26.02147597 19.73377845 -27.6875 19.6875 C-28.6875 18.6875 -28.6875 18.6875 -28.75 16.125 C-28.729375 15.320625 -28.70875 14.51625 -28.6875 13.6875 C-27.73488281 13.43355469 -26.78226563 13.17960937 -25.80078125 12.91796875 C-24.54652344 12.57378906 -23.29226562 12.22960937 -22 11.875 C-20.75863281 11.53855469 -19.51726562 11.20210938 -18.23828125 10.85546875 C-14.99848385 9.78979282 -12.55317001 8.48951592 -9.6875 6.6875 C-9.0275 6.6875 -8.3675 6.6875 -7.6875 6.6875 C-7.419375 6.089375 -7.15125 5.49125 -6.875 4.875 C-3.9775 -0.4625 -3.9775 -0.4625 0 0 Z " fill="#020302" transform="translate(246.6875,250.3125)"/>
<path d="M0 0 C8.82955515 1.25464372 15.67501913 7.99483978 21.234375 14.59375 C24.04155024 18.41945785 26.56362266 22.4553963 28 27 C27.62109375 29.29296875 27.62109375 29.29296875 27 31 C25.68 31.33 24.36 31.66 23 32 C20.7903399 28.42245507 18.84509889 24.77805964 17 21 C15.68 21 14.36 21 13 21 C13.680625 22.0725 14.36125 23.145 15.0625 24.25 C17.03471002 27.66157733 17.03471002 27.66157733 16.75 30.4375 C16.5025 30.953125 16.255 31.46875 16 32 C13.69921875 32.265625 13.69921875 32.265625 11 32 C9.26953125 30.171875 9.26953125 30.171875 7.8125 27.75 C7.32394531 26.96109375 6.83539063 26.1721875 6.33203125 25.359375 C5 23 5 23 4.01171875 20.765625 C3.0597205 18.64995839 3.0597205 18.64995839 0 18 C0 16.35 0 14.7 0 13 C3.14624993 12.73781251 4.61837017 12.75245633 7.3125 14.5 C7.869375 14.995 8.42625 15.49 9 16 C9.66 15.34 10.32 14.68 11 14 C9.58367866 12.89539041 8.16692736 11.79133212 6.75 10.6875 C5.96109375 10.07261719 5.1721875 9.45773438 4.359375 8.82421875 C2.2537703 7.19620982 0.13390657 5.59064137 -2 4 C-1.34 2.68 -0.68 1.36 0 0 Z " fill="#030402" transform="translate(236,189)"/>
<path d="M0 0 C2.6875 1 2.6875 1 4.6875 4 C4.6875 6.875 4.6875 6.875 3.6875 10 C1.74401499 11.73223664 -0.25970004 13.39881603 -2.3125 15 C-4.84496575 18.47041603 -6.23509419 22.21245569 -7.6640625 26.23046875 C-8.3125 28 -8.3125 28 -9.3125 30 C-15.6725 30.48 -15.6725 30.48 -18.3125 28.5 C-20.1312278 23.9531805 -19.03634855 19.88258997 -17.34375 15.48046875 C-16.37959273 13.29389779 -15.37714663 11.13919695 -14.3125 9 C-13.6525 9 -12.9925 9 -12.3125 9 C-12.126875 8.443125 -11.94125 7.88625 -11.75 7.3125 C-8.9825322 2.86048658 -5.30447663 0 0 0 Z " fill="#FC9537" transform="translate(304.3125,181)"/>
<path d="M0 0 C0.66 0.33 1.32 0.66 2 1 C2 1.66 2 2.32 2 3 C2.99 3.33 3.98 3.66 5 4 C6.16983345 6.3396669 6.1661241 7.83391527 6.1875 10.4375 C6.20167969 11.21996094 6.21585938 12.00242187 6.23046875 12.80859375 C6 15 6 15 4 18 C3.34 18 2.68 18 2 18 C2 18.66 2 19.32 2 20 C-1.19378082 21.59689041 -4.52521315 21.37348957 -8 21 C-10.87472735 19.75011855 -12.44101438 18.74531416 -14.3125 16.25 C-15.5031612 12.35329061 -15.5031612 8.64670939 -14.3125 4.75 C-10.42564213 -0.43247716 -5.97000315 -0.39147562 0 0 Z " fill="#030302" transform="translate(221,308)"/>
<path d="M0 0 C0.33 0 0.66 0 1 0 C0.6153394 6.15456953 -1.39787551 10.04829248 -5 15 C-5.86625 16.21429688 -5.86625 16.21429688 -6.75 17.453125 C-9.39493213 20.44704123 -12.33200321 22.52160146 -15.6875 24.625 C-16.30383301 25.01743896 -16.92016602 25.40987793 -17.55517578 25.81420898 C-22.21108649 28.69756794 -26.67575296 30.62303956 -32 32 C-32 31.34 -32 30.68 -32 30 C-30.20703125 28.66796875 -30.20703125 28.66796875 -27.8125 27.1875 C-24.01029915 24.83555818 -21.10213644 22.21999876 -18 19 C-17.03508631 18.04171232 -16.06754502 17.08606455 -15.09765625 16.1328125 C-8.49925447 9.63516409 -8.49925447 9.63516409 -2.3125 2.75 C-1.549375 1.8425 -0.78625 0.935 0 0 Z " fill="#1D5EC6" transform="translate(374,347)"/>
<path d="M0 0 C2.125 0.375 2.125 0.375 4 1 C5.06005542 5.18442931 4.99068736 8.89309991 4.6875 13.1875 C4.60886719 14.41855469 4.53023438 15.64960938 4.44921875 16.91796875 C4 20 4 20 2 22 C-0.625 21.625 -0.625 21.625 -3 21 C-3.25386715 7.48862602 -3.25386715 7.48862602 -2 2 C-1.34 1.34 -0.68 0.68 0 0 Z " fill="#070708" transform="translate(267,287)"/>
<path d="M0 0 C1.5625 1.125 1.5625 1.125 3 3 C3.0625 5.875 3.0625 5.875 2 9 C0.05651499 10.73223664 -1.94720004 12.39881603 -4 14 C-6.53246575 17.47041603 -7.92259419 21.21245569 -9.3515625 25.23046875 C-10 27 -10 27 -11 29 C-13.31 29 -15.62 29 -18 29 C-17.236875 28.195625 -16.47375 27.39125 -15.6875 26.5625 C-13.47965279 23.96105328 -12.50835609 21.78341791 -11.625 18.5 C-10.32865334 14.04896004 -8.30986327 12.00209298 -4.62109375 9.2890625 C-1.35385017 6.69101339 -0.6386414 3.93828862 0 0 Z " fill="#FA7B42" transform="translate(306,182)"/>
<path d="M0 0 C1.32 0 2.64 0 4 0 C5.77219576 6.26175835 6.85093264 12.47543632 7 19 C6 20 6 20 3.4375 20.0625 C2.633125 20.041875 1.82875 20.02125 1 20 C-0.71495553 13.66078938 -1.56115584 7.57726846 -1 1 C-0.67 0.67 -0.34 0.34 0 0 Z " fill="#040505" transform="translate(291,244)"/>
<path d="M0 0 C1.13115234 0.22139648 1.13115234 0.22139648 2.28515625 0.44726562 C4.14961157 0.81307648 6.01246714 1.18702356 7.875 1.5625 C8.25718767 3.21864657 8.58895102 4.88707024 8.875 6.5625 C7.26322832 8.17427168 5.53685056 7.77174854 3.3125 7.8125 C-1.80013852 7.78307474 -5.47734214 6.62812572 -10.125 4.5625 C-10.125 2.9125 -10.125 1.2625 -10.125 -0.4375 C-6.84145198 -2.07927401 -3.46871004 -0.70392648 0 0 Z " fill="#040503" transform="translate(210.125,272.4375)"/>
<path d="M0 0 C2.0625 0.4375 2.0625 0.4375 4 1 C5.13787512 3.80808947 5.05802414 4.85272417 3.92578125 7.7265625 C3.39339844 8.68304688 2.86101562 9.63953125 2.3125 10.625 C1.79300781 11.58664063 1.27351563 12.54828125 0.73828125 13.5390625 C-1.03926693 16.05559139 -2.15411706 16.94596928 -5 18 C-5.66 17.34 -6.32 16.68 -7 16 C-6.63548982 12.1726431 -5.24622956 9.14093414 -3.5 5.75 C-2.83484375 4.44289062 -2.83484375 4.44289062 -2.15625 3.109375 C-1 1 -1 1 0 0 Z " fill="#070805" transform="translate(259,244)"/>
<path d="M0 0 C3.53571429 0.53571429 3.53571429 0.53571429 5 2 C5.31046812 7.1744687 4.58455205 11.14730934 3 16 C1.35 15.67 -0.3 15.34 -2 15 C-2.05386629 12.87527424 -2.09273071 10.75016348 -2.125 8.625 C-2.14820313 7.44164062 -2.17140625 6.25828125 -2.1953125 5.0390625 C-2 2 -2 2 0 0 Z " fill="#010201" transform="translate(251,227)"/>
<path d="M0 0 C2.375 0.75 2.375 0.75 3.375 1.75 C3.625 4.1875 3.625 4.1875 3.375 6.75 C0.375 8.75 0.375 8.75 -2.3125 8.375 C-3.075625 8.16875 -3.83875 7.9625 -4.625 7.75 C-5.3125 5.4375 -5.3125 5.4375 -5.625 2.75 C-3.9659358 -0.015107 -3.22812218 -0.30744021 0 0 Z " fill="#F59136" transform="translate(217.625,314.25)"/>
<path d="M0 0 C2.125 0.375 2.125 0.375 4 1 C4.625 4.375 4.625 4.375 5 8 C4.34 8.66 3.68 9.32 3 10 C1.68 10 0.36 10 -1 10 C-2.38125018 7.23749964 -2.19079306 5.05268901 -2 2 C-1.34 1.34 -0.68 0.68 0 0 Z " fill="#090B07" transform="translate(234,285)"/>
<path d="M0 0 C1.66611905 -0.042721 3.33382885 -0.04063832 5 0 C6 1 6 1 6.0625 4.5625 C6.041875 5.696875 6.02125 6.83125 6 8 C4.34385343 8.38218767 2.67542976 8.71395102 1 9 C0 8 0 8 -0.09765625 6.15234375 C-0.06510417 4.1015625 -0.03255208 2.05078125 0 0 Z " fill="#020201" transform="translate(265,180)"/>
<path d="M0 0 C2.03144641 0.93446535 4.03533587 1.93224776 6 3 C5.67 4.65 5.34 6.3 5 8 C3.35 8 1.7 8 0 8 C0 7.34 0 6.68 0 6 C-0.66 6 -1.32 6 -2 6 C-2 4.35 -2 2.7 -2 1 C-1.34 0.67 -0.68 0.34 0 0 Z " fill="#030402" transform="translate(205,287)"/>
<path d="M0 0 C2.97 0.495 2.97 0.495 6 1 C6.33 2.65 6.66 4.3 7 6 C4.6875 6.6875 4.6875 6.6875 2 7 C0.125 5.8125 0.125 5.8125 -1 4 C-0.6875 1.8125 -0.6875 1.8125 0 0 Z " fill="#020201" transform="translate(308,322)"/>
<path d="M0 0 C2.125 0.375 2.125 0.375 4 1 C4 3.31 4 5.62 4 8 C0.25 9.125 0.25 9.125 -2 8 C-2.125 5.125 -2.125 5.125 -2 2 C-1.34 1.34 -0.68 0.68 0 0 Z " fill="#050503" transform="translate(316,305)"/>
<path d="M0 0 C2.5 0.25 2.5 0.25 4.5 2.25 C4.125 4.375 4.125 4.375 3.5 6.25 C1.19 6.25 -1.12 6.25 -3.5 6.25 C-4.125 4.375 -4.125 4.375 -4.5 2.25 C-2.5 0.25 -2.5 0.25 0 0 Z " fill="#090502" transform="translate(210.5,227.75)"/>
<path d="M0 0 C1.32 0 2.64 0 4 0 C4.73080266 1.97746603 5.39421747 3.98072489 6 6 C5.67 6.66 5.34 7.32 5 8 C0.125 7.125 0.125 7.125 -1 6 C-1.125 3.5 -1.125 3.5 -1 1 C-0.67 0.67 -0.34 0.34 0 0 Z " fill="#080809" transform="translate(285,300)"/>
<path d="M0 0 C1.4540625 0.0309375 1.4540625 0.0309375 2.9375 0.0625 C3.31968767 1.71864657 3.65145102 3.38707024 3.9375 5.0625 C2.9375 6.0625 2.9375 6.0625 -0.125 6.125 C-1.094375 6.104375 -2.06375 6.08375 -3.0625 6.0625 C-3.44468767 4.40635343 -3.77645102 2.73792976 -4.0625 1.0625 C-3.0625 0.0625 -3.0625 0.0625 0 0 Z " fill="#080A06" transform="translate(313.0625,213.9375)"/>
<path d="M0 0 C1.32 0 2.64 0 4 0 C5.125 5.75 5.125 5.75 4 8 C2.35 8 0.7 8 -1 8 C-1.04241723 5.66705225 -1.04092937 3.33297433 -1 1 C-0.67 0.67 -0.34 0.34 0 0 Z " fill="#030302" transform="translate(219,295)"/>
<path d="M0 0 C1.32 0.66 2.64 1.32 4 2 C4 3.65 4 5.3 4 7 C2.125 8.0625 2.125 8.0625 0 9 C-0.66 8.67 -1.32 8.34 -2 8 C-2.125 5.125 -2.125 5.125 -2 2 C-1.34 1.34 -0.68 0.68 0 0 Z " fill="#050503" transform="translate(272,218)"/>
<path d="M0 0 C1.32 0.33 2.64 0.66 4 1 C4.125 3.375 4.125 3.375 4 6 C3.34 6.66 2.68 7.32 2 8 C-0.0625 7.8125 -0.0625 7.8125 -2 7 C-2.33 6.01 -2.66 5.02 -3 4 C-1.5625 1.8125 -1.5625 1.8125 0 0 Z " fill="#010201" transform="translate(237,325)"/>
<path d="M0 0 C1.32 0 2.64 0 4 0 C4.33 1.98 4.66 3.96 5 6 C3.34385343 6.38218767 1.67542976 6.71395102 0 7 C-1 6 -1 6 -1.125 3.5 C-1 1 -1 1 0 0 Z " fill="#030301" transform="translate(247,175)"/>
</svg>
