<?xml version="1.0" encoding="UTF-8"?>
<svg version="1.1" xmlns="http://www.w3.org/2000/svg" width="512" height="512">
<path d="M0 0 C1.35279808 -0.01058945 1.35279808 -0.01058945 2.73292542 -0.02139282 C40.65979482 -0.25083645 40.65979482 -0.25083645 57.3046875 3.203125 C58.79524658 3.50911621 58.79524658 3.50911621 60.31591797 3.82128906 C82.32160452 8.47510056 103.07316694 15.38909761 123.3046875 25.203125 C123.96098145 25.51830078 124.61727539 25.83347656 125.29345703 26.15820312 C147.92158266 37.16615917 168.24316588 52.81178971 186.3046875 70.203125 C186.82836914 70.70489258 187.35205078 71.20666016 187.89160156 71.72363281 C194.90711513 78.47850811 201.36028214 85.4682361 207.3046875 93.203125 C207.72572754 93.74775391 208.14676758 94.29238281 208.58056641 94.85351562 C216.25816263 104.84364083 223.01390605 115.29110966 229.3046875 126.203125 C229.73136719 126.93982422 230.15804688 127.67652344 230.59765625 128.43554688 C249.00431033 160.63303255 260.21016964 198.8772287 260.54296875 236.07421875 C260.5527626 236.98601898 260.56255646 237.89781921 260.57264709 238.83724976 C260.74436762 258.97033282 260.56585349 278.43523314 256.3046875 298.203125 C256.09569824 299.20956055 255.88670898 300.21599609 255.67138672 301.25292969 C243.98603885 356.23971271 212.06269148 408.78760799 167.3046875 443.203125 C166.77601074 443.61353027 166.24733398 444.02393555 165.70263672 444.44677734 C125.74374453 475.29406836 75.51159438 496.13836518 24.51171875 496.40625 C23.16104309 496.41683945 23.16104309 496.41683945 21.78308105 496.42764282 C-16.05099356 496.6569674 -16.05099356 496.6569674 -32.6953125 493.203125 C-34.18587158 492.89713379 -34.18587158 492.89713379 -35.70654297 492.58496094 C-83.72935843 482.42898919 -126.32100433 460.22425593 -161.6953125 426.203125 C-162.18660645 425.73374512 -162.67790039 425.26436523 -163.18408203 424.78076172 C-169.91181475 418.32439973 -175.94779876 411.53823869 -181.6953125 404.203125 C-182.47390625 403.24148438 -183.2525 402.27984375 -184.0546875 401.2890625 C-214.95997739 362.41138892 -235.64380051 311.33134999 -235.8984375 261.2890625 C-235.90902695 259.90290237 -235.90902695 259.90290237 -235.91983032 258.48873901 C-236.14862193 219.74330758 -236.14862193 219.74330758 -232.6953125 203.203125 C-232.49131836 202.21086914 -232.28732422 201.21861328 -232.07714844 200.19628906 C-221.92634205 152.19051039 -199.73069303 109.55008088 -165.6953125 74.203125 C-165.19354492 73.67944336 -164.69177734 73.15576172 -164.17480469 72.61621094 C-157.41992939 65.60069737 -150.4302014 59.14753036 -142.6953125 53.203125 C-142.15068359 52.78208496 -141.60605469 52.36104492 -141.04492188 51.92724609 C-131.05479667 44.24964987 -120.60732784 37.49390645 -109.6953125 31.203125 C-108.95861328 30.77644531 -108.22191406 30.34976563 -107.46289062 29.91015625 C-75.53556602 11.65794781 -36.94344306 0.19286315 0 0 Z " fill="#428DE8" transform="translate(243.6953125,7.796875)"/>
<path d="M0 0 C2.36080808 1.20777723 4.75788629 2.19085483 7.23193359 3.1418457 C7.23193359 3.8018457 7.23193359 4.4618457 7.23193359 5.1418457 C8.88193359 5.4718457 10.53193359 5.8018457 12.23193359 6.1418457 C12.23193359 6.8018457 12.23193359 7.4618457 12.23193359 8.1418457 C13.62412109 8.5749707 13.62412109 8.5749707 15.04443359 9.0168457 C18.23193359 10.1418457 18.23193359 10.1418457 21.23193359 12.1418457 C21.23193359 12.8018457 21.23193359 13.4618457 21.23193359 14.1418457 C21.93705078 14.3790332 22.64216797 14.6162207 23.36865234 14.8605957 C26.73480228 16.36686743 29.20176532 18.29769088 32.04443359 20.6418457 C33.02025391 21.4359082 33.99607422 22.2299707 35.00146484 23.0480957 C35.73751953 23.7390332 36.47357422 24.4299707 37.23193359 25.1418457 C37.23193359 25.8018457 37.23193359 26.4618457 37.23193359 27.1418457 C38.22193359 27.4718457 39.21193359 27.8018457 40.23193359 28.1418457 C40.23193359 28.8018457 40.23193359 29.4618457 40.23193359 30.1418457 C40.81072266 30.38676758 41.38951172 30.63168945 41.98583984 30.8840332 C48.21907783 34.37464647 52.65386731 41.32256696 56.12646484 47.4152832 C57.31118192 49.26561871 58.67594868 50.5978916 60.23193359 52.1418457 C63.79035759 57.17272101 66.55665124 62.6078947 69.23193359 68.1418457 C70.2202945 70.09236098 71.21138211 72.04145073 72.20458984 73.98950195 C89.20883131 109.61435765 87.82249072 151.19807127 75.30224609 187.86450195 C71.04076396 199.15931522 65.36054324 210.39941252 58.23193359 220.1418457 C57.80912109 220.75543945 57.38630859 221.3690332 56.95068359 222.0012207 C50.53357796 231.0299391 42.59549258 239.54276359 34.04833984 246.5793457 C32.09902198 248.20415167 32.09902198 248.20415167 30.00146484 250.48168945 C26.69322947 253.65927519 23.15197861 256.14712378 19.35693359 258.7043457 C18.67501953 259.17291992 17.99310547 259.64149414 17.29052734 260.12426758 C11.64155965 263.97094558 5.96603354 267.64743089 -0.45556641 270.0793457 C-3.17271855 271.12126119 -5.8552083 272.1806443 -8.51416016 273.36450195 C-16.11369084 276.73634257 -23.67943203 278.87130448 -31.77151489 280.68727112 C-33.11298982 280.99269795 -34.45060383 281.31555667 -35.78390503 281.65489197 C-41.38679231 283.02879928 -46.66366889 283.46248754 -52.42041016 283.4777832 C-53.31941544 283.48444 -54.21842072 283.4910968 -55.14466858 283.49795532 C-57.03970314 283.50802226 -58.93477272 283.5127742 -60.82983398 283.51245117 C-63.66729477 283.51678722 -66.50314928 283.55306757 -69.34033203 283.59106445 C-81.34888785 283.66406698 -92.18630242 282.2901896 -103.76806641 279.1418457 C-104.77224609 278.87686279 -105.77642578 278.61187988 -106.81103516 278.33886719 C-113.36666937 276.5551472 -119.54513088 273.83675084 -125.76806641 271.1418457 C-126.50541016 270.84665039 -127.24275391 270.55145508 -128.00244141 270.24731445 C-140.70589303 265.01788606 -151.55290399 257.17718673 -161.76806641 248.1418457 C-162.58791016 247.45477539 -163.40775391 246.76770508 -164.25244141 246.05981445 C-169.6416798 241.52100552 -169.6416798 241.52100552 -170.76806641 238.1418457 C-171.75806641 237.8118457 -172.74806641 237.4818457 -173.76806641 237.1418457 C-173.76806641 236.4818457 -173.76806641 235.8218457 -173.76806641 235.1418457 C-174.75806641 234.8118457 -175.74806641 234.4818457 -176.76806641 234.1418457 C-178.59228516 232.14575195 -178.59228516 232.14575195 -180.45556641 229.7043457 C-181.07818359 228.90125977 -181.70080078 228.09817383 -182.34228516 227.27075195 C-183.76806641 225.1418457 -183.76806641 225.1418457 -183.76806641 223.1418457 C-184.42806641 223.1418457 -185.08806641 223.1418457 -185.76806641 223.1418457 C-187.02978516 221.34106445 -187.02978516 221.34106445 -188.45556641 218.8293457 C-190.54861278 215.1855192 -192.75165692 211.71988777 -195.14306641 208.2668457 C-198.47334744 203.08228792 -200.79927293 197.65497637 -203.08056641 191.9543457 C-203.58692627 190.68905029 -203.58692627 190.68905029 -204.10351562 189.39819336 C-205.78820341 185.05822628 -207.15253281 180.79452404 -208.25090027 176.26106262 C-208.7490724 174.21967835 -209.28277162 172.19035924 -209.82080078 170.15917969 C-212.56320382 159.33496632 -213.39537717 149.03068614 -213.28955078 137.88330078 C-213.26810207 135.20879239 -213.28949164 132.53697691 -213.31494141 129.86254883 C-213.36284642 100.43284563 -203.25713363 65.23547843 -182.76806641 43.1418457 C-182.10806641 43.1418457 -181.44806641 43.1418457 -180.76806641 43.1418457 C-180.43806641 41.8218457 -180.10806641 40.5018457 -179.76806641 39.1418457 C-179.10806641 39.1418457 -178.44806641 39.1418457 -177.76806641 39.1418457 C-177.56568359 38.61333008 -177.36330078 38.08481445 -177.15478516 37.5402832 C-175.15512664 34.0817189 -172.42467205 31.54645735 -169.58056641 28.7668457 C-168.99339844 28.18757324 -168.40623047 27.60830078 -167.80126953 27.01147461 C-162.46175674 21.77691902 -157.26479968 16.93160678 -150.76806641 13.1418457 C-150.33494141 12.68680664 -149.90181641 12.23176758 -149.45556641 11.76293945 C-138.4827183 1.22189324 -120.07110454 -4.51272455 -105.76806641 -8.8581543 C-104.82447266 -9.15592773 -103.88087891 -9.45370117 -102.90869141 -9.76049805 C-70.62072623 -19.36091373 -29.75455005 -15.86000574 0 0 Z " fill="#FEFEFE" transform="translate(320.76806640625,120.858154296875)"/>
<path d="M0 0 C1.35279808 -0.01058945 1.35279808 -0.01058945 2.73292542 -0.02139282 C40.65979482 -0.25083645 40.65979482 -0.25083645 57.3046875 3.203125 C58.79524658 3.50911621 58.79524658 3.50911621 60.31591797 3.82128906 C82.32160452 8.47510056 103.07316694 15.38909761 123.3046875 25.203125 C123.96098145 25.51830078 124.61727539 25.83347656 125.29345703 26.15820312 C147.92158266 37.16615917 168.24316588 52.81178971 186.3046875 70.203125 C186.82836914 70.70489258 187.35205078 71.20666016 187.89160156 71.72363281 C202.35403804 85.64876515 215.22441896 101.79487968 225.3046875 119.203125 C225.3046875 119.533125 225.3046875 119.863125 225.3046875 120.203125 C180.4246875 120.533125 135.5446875 120.863125 89.3046875 121.203125 C89.3046875 120.543125 89.3046875 119.883125 89.3046875 119.203125 C87.6546875 118.873125 86.0046875 118.543125 84.3046875 118.203125 C84.3046875 117.543125 84.3046875 116.883125 84.3046875 116.203125 C83.0671875 115.81125 81.8296875 115.419375 80.5546875 115.015625 C76.93583928 113.81866438 73.47872433 112.42807368 69.9921875 110.890625 C39.36253228 98.01446421 2.54314046 95.32023768 -29.24145508 105.61401367 C-34.49919352 107.30118449 -34.49919352 107.30118449 -36.6953125 106.203125 C-37.1903125 105.605 -37.6853125 105.006875 -38.1953125 104.390625 C-46.62429629 97.01526418 -58.08176681 96.7411379 -68.6953125 97.203125 C-78.14297897 98.08139413 -87.93183673 101.24072347 -94.6953125 108.203125 C-97.0707258 112.10558971 -98.58527607 115.76297928 -99.6953125 120.203125 C-133.0253125 120.203125 -166.3553125 120.203125 -200.6953125 120.203125 C-197.59196121 114.61709268 -194.66637702 109.43681934 -190.9453125 104.328125 C-190.513396 103.73080566 -190.08147949 103.13348633 -189.63647461 102.51806641 C-176.3541728 84.31468513 -160.60040121 66.96351725 -142.6953125 53.203125 C-142.15068359 52.78208496 -141.60605469 52.36104492 -141.04492188 51.92724609 C-131.05479667 44.24964987 -120.60732784 37.49390645 -109.6953125 31.203125 C-108.95861328 30.77644531 -108.22191406 30.34976563 -107.46289062 29.91015625 C-75.53556602 11.65794781 -36.94344306 0.19286315 0 0 Z " fill="#63ACF6" transform="translate(243.6953125,7.796875)"/>
<path d="M0 0 C17.36761125 -0.21032042 34.73482468 -0.36898613 52.10341835 -0.46630955 C60.16817438 -0.51270166 68.23213883 -0.57593793 76.29638672 -0.67895508 C83.32594754 -0.76871169 90.35493511 -0.82673531 97.38505304 -0.84679645 C101.10721266 -0.85852267 104.82773252 -0.88603709 108.549366 -0.95157051 C112.70633632 -1.0241747 116.8604641 -1.02590642 121.01806641 -1.02172852 C122.24949371 -1.054086 123.48092102 -1.08644348 124.74966431 -1.11978149 C132.91565112 -1.03082715 132.91565112 -1.03082715 136.0769558 1.97444057 C137.62585076 4.26032622 138.85260385 6.4924908 140 9 C140.7741626 10.3780481 140.7741626 10.3780481 141.56396484 11.78393555 C142.8458319 14.41342743 144.12410432 17.04308059 145.375 19.6875 C145.84832764 20.68789307 146.32165527 21.68828613 146.80932617 22.71899414 C160.26934779 51.68863676 168.95122589 83.78688722 169.23828125 115.87109375 C169.2480751 116.78289398 169.25786896 117.69469421 169.26795959 118.63412476 C169.43968012 138.76720782 169.26116599 158.23210814 165 178 C164.68651611 179.50965332 164.68651611 179.50965332 164.36669922 181.04980469 C153.14495528 233.85504472 153.14495528 233.85504472 139 248 C136.68969774 248.12289651 134.37586109 248.17994483 132.0625 248.2109375 C130.60325704 248.23640891 129.14402867 248.2627272 127.68481445 248.28979492 C126.91900055 248.30303802 126.15318665 248.31628113 125.36416626 248.32992554 C96.48986591 248.88043402 74.30576583 253.98022669 51.42578125 272.65332031 C39.70046847 282.18164174 26.65641651 287.43012911 12.3125 291.75 C11.33494751 292.04789429 11.33494751 292.04789429 10.33764648 292.35180664 C-22.58632916 301.85811097 -57.64387834 295.83844839 -87.17578125 279.57421875 C-88.10777344 279.05472656 -89.03976563 278.53523438 -90 278 C-90 277.67 -90 277.34 -90 277 C-89.34330322 276.99589111 -88.68660645 276.99178223 -88.01000977 276.98754883 C-63.04136303 276.71720835 -38.41175901 273.49405148 -15.95336914 261.9675293 C-14.17212738 261.08525694 -12.33728138 260.31338629 -10.5 259.5546875 C-6.41333973 257.7394076 -2.76278478 255.52539719 1 253.125 C1.67289062 252.70347656 2.34578125 252.28195312 3.0390625 251.84765625 C9.59115448 247.71149008 15.62642119 243.63317199 21 238 C21.93457031 237.08863281 22.86914062 236.17726563 23.83203125 235.23828125 C30.04852591 229.15508576 35.71649314 222.92859877 41 216 C41.6703125 215.19175781 42.340625 214.38351562 43.03125 213.55078125 C45.00005634 210.99992701 46.4988663 208.47225902 48 205.625 C49.62343118 202.56530013 51.25531568 199.58221071 53.0625 196.625 C56.06930295 191.40988119 57.92749505 185.6300851 60 180 C60.36351562 179.05511719 60.72703125 178.11023438 61.1015625 177.13671875 C67.10787975 161.29563013 69.38832363 145.2134766 69.3125 128.3125 C69.30758545 127.00249023 69.3026709 125.69248047 69.29760742 124.34277344 C69.05715869 104.32264216 65.78007595 83.70708489 56 66 C55.525625 64.865625 55.05125 63.73125 54.5625 62.5625 C52.75338914 58.43772723 50.61081301 54.57085873 48.40234375 50.6484375 C47 48 47 48 46.00390625 45.2265625 C45.67261719 44.49179688 45.34132813 43.75703125 45 43 C44.01 42.67 43.02 42.34 42 42 C40.67578125 40.25 40.67578125 40.25 39.3125 38 C34.84786738 31.03650584 29.60805282 25.00068862 23 20 C22.2575 19.236875 21.515 18.47375 20.75 17.6875 C17.72169631 14.72802139 14.50719908 12.20584424 11.14453125 9.640625 C9.46597032 8.35648002 7.81996879 7.02975212 6.1875 5.6875 C4.18607216 4.14354138 2.30332922 3.02370187 0 2 C0 1.34 0 0.68 0 0 Z " fill="#428DE7" transform="translate(335,128)"/>
<path d="M0 0 C11.23306192 -0.40503829 21.33898676 1.89190606 30.0625 9.1953125 C27.87439385 11.63681907 25.9749218 12.84270892 22.9296875 14.02734375 C22.12748779 14.34815918 21.32528809 14.66897461 20.4987793 14.99951172 C19.23094604 15.49862061 19.23094604 15.49862061 17.9375 16.0078125 C11.76365914 18.50742282 6.17472741 21.03423691 0.79296875 25.01953125 C-1.5951884 26.6421843 -4.20994914 27.30885847 -6.9375 28.1953125 C-7.2675 29.1853125 -7.5975 30.1753125 -7.9375 31.1953125 C-9.609375 32.40625 -9.609375 32.40625 -11.6875 33.5703125 C-15.38456393 35.64461936 -17.99471832 38.14434031 -20.9375 41.1953125 C-22.03395852 42.28507304 -23.13305838 43.37218055 -24.234375 44.45703125 C-25.38544781 45.59892694 -26.53648906 46.74085445 -27.6875 47.8828125 C-28.27660156 48.46353516 -28.86570313 49.04425781 -29.47265625 49.64257812 C-32.58656764 52.62686566 -32.58656764 52.62686566 -34.9375 56.1953125 C-35.5975 56.1953125 -36.2575 56.1953125 -36.9375 56.1953125 C-37.02 56.7728125 -37.1025 57.3503125 -37.1875 57.9453125 C-38.15744911 60.85515984 -39.71521101 62.10001145 -41.9375 64.1953125 C-46.25351993 68.94293442 -48.99579106 74.54247988 -51.9375 80.1953125 C-52.53175781 81.33097656 -53.12601562 82.46664062 -53.73828125 83.63671875 C-57.34958963 90.68147663 -60.48933506 97.66691797 -62.9375 105.1953125 C-63.20175781 105.96746094 -63.46601562 106.73960937 -63.73828125 107.53515625 C-68.22140154 121.35236288 -69.45253346 134.93279718 -69.38354492 149.35791016 C-69.37502935 152.06099663 -69.40393568 154.76196367 -69.43554688 157.46484375 C-69.54356596 184.44245788 -60.94281937 209.88516807 -46.44921875 232.51953125 C-45.99160156 233.23753906 -45.53398437 233.95554687 -45.0625 234.6953125 C-44.65257812 235.324375 -44.24265625 235.9534375 -43.8203125 236.6015625 C-42.9375 238.1953125 -42.9375 238.1953125 -42.9375 240.1953125 C-42.2775 240.1953125 -41.6175 240.1953125 -40.9375 240.1953125 C-38.86555826 242.84812974 -37.00529617 245.6203533 -35.10546875 248.3984375 C-32.93635674 251.19678741 -30.73015969 253.04711274 -27.9375 255.1953125 C-26.84201536 256.41650849 -25.77774097 257.6665808 -24.75 258.9453125 C-21.22160975 263.10600277 -17.20856618 266.33165405 -12.87890625 269.62890625 C-11.91791016 270.40427734 -11.91791016 270.40427734 -10.9375 271.1953125 C-10.9375 271.5253125 -10.9375 271.8553125 -10.9375 272.1953125 C-53.5075 272.1953125 -96.0775 272.1953125 -139.9375 272.1953125 C-150.46917629 252.30214618 -150.46917629 252.30214618 -154.125 242.5078125 C-154.54152832 241.40332764 -154.95805664 240.29884277 -155.38720703 239.16088867 C-164.07315275 215.65149113 -170.01259876 190.44148259 -170.140625 165.28125 C-170.14768463 164.35714325 -170.15474426 163.4330365 -170.16201782 162.48092651 C-170.39080943 123.73549508 -170.39080943 123.73549508 -166.9375 107.1953125 C-166.73350586 106.20305664 -166.52951172 105.21080078 -166.31933594 104.18847656 C-153.28421399 42.54202649 -153.28421399 42.54202649 -134.9375 24.1953125 C-131.80190114 24.09996292 -128.68836387 24.06980371 -125.55249023 24.08178711 C-124.07460526 24.08156807 -124.07460526 24.08156807 -122.56686401 24.0813446 C-119.29325193 24.08204418 -116.01969596 24.08983865 -112.74609375 24.09765625 C-110.48307832 24.09952027 -108.22006249 24.10094425 -105.95704651 24.10194397 C-99.98771052 24.1057704 -94.01839868 24.11560175 -88.04907227 24.12664795 C-81.96305671 24.13685938 -75.87703727 24.14144101 -69.79101562 24.14648438 C-57.83983311 24.15722391 -45.88866856 24.17430182 -33.9375 24.1953125 C-33.79578369 23.08687988 -33.65406738 21.97844727 -33.50805664 20.83642578 C-32.60487605 15.07261091 -29.56576122 11.29250238 -25.04296875 7.68359375 C-17.12738758 2.48460257 -9.35217522 0.62182016 0 0 Z " fill="#428DE8" transform="translate(177.9375,103.8046875)"/>
<path d="M0 0 C1.35279808 -0.01058945 1.35279808 -0.01058945 2.73292542 -0.02139282 C40.65979482 -0.25083645 40.65979482 -0.25083645 57.3046875 3.203125 C58.79524658 3.50911621 58.79524658 3.50911621 60.31591797 3.82128906 C82.32160452 8.47510056 103.07316694 15.38909761 123.3046875 25.203125 C123.96098145 25.51830078 124.61727539 25.83347656 125.29345703 26.15820312 C142.59720618 34.57599756 158.50056262 45.98227024 173.3046875 58.203125 C173.86816895 58.65929199 174.43165039 59.11545898 175.01220703 59.58544922 C176.46203042 60.76843395 177.88589825 61.98309311 179.3046875 63.203125 C179.3046875 63.533125 179.3046875 63.863125 179.3046875 64.203125 C154.70280299 64.29698328 130.1009457 64.36730604 105.49891758 64.41037369 C94.07319174 64.43091117 82.6475778 64.45886112 71.22192383 64.50488281 C61.25169079 64.54502269 51.28153887 64.57062166 41.31122726 64.57947898 C36.0425679 64.58464823 30.7741404 64.59660899 25.50555611 64.62604523 C1.34799751 64.75577763 -21.41852891 64.226208 -45.0078125 58.453125 C-61.57908394 54.85502022 -77.84111588 57.90470607 -94.2734375 60.9140625 C-108.58739913 63.46091603 -122.19163786 64.48373123 -136.6953125 64.328125 C-138.35676533 64.31805756 -140.01822419 64.30893847 -141.6796875 64.30078125 C-145.68504931 64.27910611 -149.69011085 64.24479243 -153.6953125 64.203125 C-153.6953125 63.543125 -153.6953125 62.883125 -153.6953125 62.203125 C-150.25253467 58.94644327 -146.44169647 56.10165438 -142.6953125 53.203125 C-142.13328125 52.76758301 -141.57125 52.33204102 -140.9921875 51.88330078 C-131.02008763 44.22174094 -120.58629166 37.48177909 -109.6953125 31.203125 C-108.95861328 30.77644531 -108.22191406 30.34976563 -107.46289062 29.91015625 C-75.53556602 11.65794781 -36.94344306 0.19286315 0 0 Z " fill="#428DE8" transform="translate(243.6953125,7.796875)"/>
<path d="M0 0 C9.61207222 7.64693745 17.26469193 17.6822384 19.75390625 30 C20.76849266 39.01854585 20.99217824 48.24944871 15.7578125 56.03515625 C14.02598558 58.20250177 12.50210606 59.93644697 10 61.1875 C11.16266719 63.93562246 12.42895127 65.67144502 14.4375 67.9375 C19.41495829 73.8574356 20.63270947 80.12921807 20.41015625 87.7734375 C19.08518133 98.80227637 15.26345772 108.71346599 8 117.1875 C7.19949219 118.15236328 7.19949219 118.15236328 6.3828125 119.13671875 C-0.56192321 126.79586507 -11.36085725 132.32472294 -21.66748047 133.48876953 C-24.53562469 133.62501267 -27.37882342 133.65503472 -30.25 133.625 C-31.26489502 133.61742676 -32.27979004 133.60985352 -33.32543945 133.60205078 C-41.21935121 133.42911308 -47.72297429 132.40618445 -55 129.1875 C-56.53140625 128.53394531 -56.53140625 128.53394531 -58.09375 127.8671875 C-65.22872532 124.56996406 -71.14207485 120.40006052 -77 115.1875 C-77.69867188 114.58292969 -78.39734375 113.97835937 -79.1171875 113.35546875 C-85.09222773 107.83378761 -89.06585453 101.25844742 -93 94.1875 C-93.42410156 93.42566406 -93.84820312 92.66382813 -94.28515625 91.87890625 C-101.87173026 76.61921936 -102.30827274 57.2021528 -97.19238281 41.17382812 C-90.43931356 21.55031174 -77.64435042 6.29561929 -58.95068359 -2.91943359 C-39.76438116 -11.70335028 -17.79792074 -12.26025247 0 0 Z " fill="#010101" transform="translate(310,193.8125)"/>
<path d="M0 0 C3.56688841 1.38139609 7.04082837 2.92428606 10.51953125 4.51318359 C25.04839297 11.08659068 38.60671632 13.10042406 54.46875 13.31640625 C55.74480103 13.33718735 57.02085205 13.35796844 58.33557129 13.37937927 C61.70232035 13.43343672 65.06908195 13.4837599 68.43591309 13.53222656 C71.88180471 13.58276658 75.32761595 13.63828171 78.7734375 13.69335938 C85.51556066 13.80012466 92.25774459 13.901962 99 14 C97.66931287 21.7294558 95.9536404 29.00587984 93.4375 36.4375 C92.91675903 37.98642944 92.91675903 37.98642944 92.38549805 39.56665039 C89.18403105 48.8616689 85.5299618 58.00522053 81.06396484 66.77246094 C79.9343797 69.0079687 79.9343797 69.0079687 79.18994141 71.53222656 C78.10822494 74.37390076 77.28873181 75.97656268 75 78 C70.3228977 79.06377768 65.84041492 79.05858845 61.06240845 78.93344116 C57.1964325 78.83573691 53.33156359 78.88893589 49.46484375 78.91796875 C48.71466476 78.91942398 47.96448578 78.92087921 47.1915741 78.92237854 C24.13370868 79.01450426 5.0333658 88.28320246 -12.57421875 102.65332031 C-24.29953153 112.18164174 -37.34358349 117.43012911 -51.6875 121.75 C-52.33920166 121.94859619 -52.99090332 122.14719238 -53.66235352 122.35180664 C-86.58632916 131.85811097 -121.64387834 125.83844839 -151.17578125 109.57421875 C-152.10777344 109.05472656 -153.03976563 108.53523438 -154 108 C-154 107.67 -154 107.34 -154 107 C-153.34330322 106.99589111 -152.68660645 106.99178223 -152.01000977 106.98754883 C-127.04136303 106.71720835 -102.41175901 103.49405148 -79.95336914 91.9675293 C-78.17212738 91.08525694 -76.33728138 90.31338629 -74.5 89.5546875 C-70.41333973 87.7394076 -66.76278478 85.52539719 -63 83.125 C-62.32710938 82.70347656 -61.65421875 82.28195312 -60.9609375 81.84765625 C-54.40884552 77.71149008 -48.37357881 73.63317199 -43 68 C-42.06542969 67.08863281 -41.13085938 66.17726563 -40.16796875 65.23828125 C-33.95147409 59.15508576 -28.28350686 52.92859877 -23 46 C-22.3296875 45.19175781 -21.659375 44.38351562 -20.96875 43.55078125 C-18.99994366 40.99992701 -17.5011337 38.47225902 -16 35.625 C-14.37656882 32.56530013 -12.74468432 29.58221071 -10.9375 26.625 C-7.92690648 21.41579877 -6.09958048 15.61654337 -4 10 C-2.68352441 6.65981599 -1.34503527 3.32877445 0 0 Z " fill="#256DD6" transform="translate(399,298)"/>
<path d="M0 0 C15.72632431 -0.04696589 31.45262931 -0.08210821 47.17900658 -0.10362434 C54.48296851 -0.11388542 61.78688657 -0.12784534 69.09082031 -0.15087891 C75.46566508 -0.17097273 81.84047804 -0.18375386 88.21535361 -0.18817699 C91.58288202 -0.19075768 94.95024821 -0.19780373 98.31776047 -0.21146011 C118.25407548 -0.28902435 136.81235685 0.22201496 156 6 C157.46459494 6.43443344 158.9294485 6.86799574 160.39453125 7.30078125 C161.13525879 7.51976074 161.87598633 7.73874023 162.63916016 7.96435547 C163.74590088 8.29137451 163.74590088 8.29137451 164.875 8.625 C165.60251465 8.84043457 166.3300293 9.05586914 167.07958984 9.27783203 C181.56958653 13.54705704 195.94260486 15.37914941 211.0625 15.3125 C211.73531006 15.31034485 212.40812012 15.3081897 213.10131836 15.30596924 C234.78088291 15.195307 254.48335752 10.68356096 275.2578125 4.79296875 C288.1472318 1.20061494 300.61703193 -0.40622837 314 0 C280.28651512 34.67672731 221.99280259 55.09181824 174.19067383 56.16113281 C172.52951478 56.18060438 170.8682815 56.19439902 169.20703125 56.203125 C167.85635559 56.21371445 167.85635559 56.21371445 166.47839355 56.22451782 C128.64431894 56.4538424 128.64431894 56.4538424 112 53 C110.50944092 52.69400879 110.50944092 52.69400879 108.98876953 52.38183594 C69.86831185 44.1085546 30.10201744 28.06287145 0 1 C0 0.67 0 0.34 0 0 Z " fill="#62ACF6" transform="translate(99,448)"/>
<path d="M0 0 C34.32 0 68.64 0 104 0 C105.32 2.64 106.64 5.28 108 8 C111.55485751 14.833332 115.42353777 21.36408188 119.6796875 27.78515625 C121 30 121 30 121 32 C121.66 32 122.32 32 123 32 C125.07194174 34.65281724 126.93220383 37.4250408 128.83203125 40.203125 C131.00114326 43.00147491 133.20734031 44.85180024 136 47 C137.09548464 48.22119599 138.15975903 49.4712683 139.1875 50.75 C142.71589025 54.91069027 146.72893382 58.13634155 151.05859375 61.43359375 C151.69925781 61.95050781 152.33992187 62.46742188 153 63 C153 63.33 153 63.66 153 64 C110.43 64 67.86 64 24 64 C13.51828063 44.20119675 13.51828063 44.20119675 9.75 34.0625 C9.12569092 32.41205688 9.12569092 32.41205688 8.48876953 30.72827148 C0 7.8937142 0 7.8937142 0 0 Z " fill="#256DD6" transform="translate(14,312)"/>
<path d="M0 0 C33 0 66 0 100 0 C100.33 12.21 100.66 24.42 101 37 C103.61318927 48.75935172 106.60096596 60.44328426 110 72 C75.68 72 41.36 72 6 72 C-1.7385154 48.7844538 0 24.17221874 0 0 Z " fill="#428DE8" transform="translate(8,240)"/>
<path d="M0 0 C17.36761125 -0.21032042 34.73482468 -0.36898613 52.10341835 -0.46630955 C60.16817438 -0.51270166 68.23213883 -0.57593793 76.29638672 -0.67895508 C83.32594754 -0.76871169 90.35493511 -0.82673531 97.38505304 -0.84679645 C101.10721266 -0.85852267 104.82773252 -0.88603709 108.549366 -0.95157051 C112.70633632 -1.0241747 116.8604641 -1.02590642 121.01806641 -1.02172852 C122.24949371 -1.054086 123.48092102 -1.08644348 124.74966431 -1.11978149 C132.91565112 -1.03082715 132.91565112 -1.03082715 136.0769558 1.97444057 C137.62585076 4.26032622 138.85260385 6.4924908 140 9 C140.7741626 10.3780481 140.7741626 10.3780481 141.56396484 11.78393555 C142.84581488 14.41339251 144.12330296 17.04350932 145.375 19.6875 C145.84397705 20.67194092 146.3129541 21.65638184 146.79614258 22.6706543 C159 48.80456582 159 48.80456582 159 56 C124.02 56 89.04 56 53 56 C52.505 56.99 52.505 56.99 52 58 C51.20576139 56.43880578 50.41472877 54.87598036 49.625 53.3125 C49.18414062 52.44238281 48.74328125 51.57226562 48.2890625 50.67578125 C47 48 47 48 46.0234375 45.23046875 C45.68570313 44.49441406 45.34796875 43.75835937 45 43 C44.01 42.67 43.02 42.34 42 42 C40.67578125 40.25 40.67578125 40.25 39.3125 38 C34.84786738 31.03650584 29.60805282 25.00068862 23 20 C22.2575 19.236875 21.515 18.47375 20.75 17.6875 C17.72169631 14.72802139 14.50719908 12.20584424 11.14453125 9.640625 C9.46597032 8.35648002 7.81996879 7.02975212 6.1875 5.6875 C4.18607216 4.14354138 2.30332922 3.02370187 0 2 C0 1.34 0 0.68 0 0 Z " fill="#428DE8" transform="translate(335,128)"/>
<path d="M0 0 C34.98 0 69.96 0 106 0 C105.13379405 4.33102973 104.05632659 7.35068574 102.25 11.3125 C95.87950598 25.82562968 92.99693238 40.266105 90 56 C57 56 24 56 -10 56 C-8.83543256 37.36692093 -8.83543256 37.36692093 -7.1875 28.4375 C-7.01371826 27.46659424 -6.83993652 26.49568848 -6.66088867 25.49536133 C-3.10447105 6.2089421 -3.10447105 6.2089421 0 0 Z " fill="#256DD6" transform="translate(18,184)"/>
<path d="M0 0 C34.98 0 69.96 0 106 0 C110.6777274 15.20261404 110.6777274 15.20261404 112.125 22.75 C112.28967773 23.59127441 112.45435547 24.43254883 112.62402344 25.29931641 C114.55194171 35.46001836 116 45.64709573 116 56 C83 56 50 56 16 56 C15.01 50.06 14.02 44.12 13 38 C12.26906378 34.7744492 11.54199228 31.66068868 10.625 28.5 C10.41439941 27.75645264 10.20379883 27.01290527 9.98681641 26.24682617 C8.28142983 20.46001589 5.92814545 15.27267428 3 10 C0 3.73705179 0 3.73705179 0 0 Z " fill="#256DD6" transform="translate(388,184)"/>
<path d="M0 0 C11.23371211 -0.41756004 21.34740885 1.88851017 30.0703125 9.19140625 C27.88220635 11.63291282 25.9827343 12.83880267 22.9375 14.0234375 C22.13530029 14.34425293 21.33310059 14.66506836 20.5065918 14.99560547 C19.66136963 15.32834473 18.81614746 15.66108398 17.9453125 16.00390625 C11.77147164 18.50351657 6.18253991 21.03033066 0.80078125 25.015625 C-1.5873759 26.63827805 -4.20213664 27.30495222 -6.9296875 28.19140625 C-7.2596875 29.18140625 -7.5896875 30.17140625 -7.9296875 31.19140625 C-9.6015625 32.40234375 -9.6015625 32.40234375 -11.6796875 33.56640625 C-14.56764347 35.25792332 -16.31113438 36.59019163 -18.6796875 39.06640625 C-20.9296875 41.19140625 -20.9296875 41.19140625 -22.9296875 41.25390625 C-28.74207649 38.1660746 -31.8252151 34.35852324 -33.9296875 28.19140625 C-34.91752475 23.04267875 -33.92376599 18.68565521 -31.37890625 14.140625 C-25.54812418 6.29814453 -16.46745671 2.28080347 -7.1171875 0.44140625 C-4.74663769 0.25576078 -2.37307667 0.15504101 0 0 Z " fill="#266ED6" transform="translate(177.9296875,103.80859375)"/>
<path d="M0 0 C4.74290039 3.39335801 7.55305263 8.23337665 9.375 13.69921875 C10.38034825 20.85155343 8.64585951 25.94138459 4.375 31.69921875 C0.57343919 35.78937973 -3.68379276 38.28155853 -9.23828125 39.0703125 C-16.06919237 39.23836675 -20.4209263 38.21730092 -25.625 33.69921875 C-30.42049684 29.02605601 -32.88936179 24.16490782 -33.125 17.44921875 C-32.9932997 9.94230171 -29.32741692 5.40163567 -24.1875 0.26171875 C-16.00101851 -4.73003826 -8.22748179 -4.37712065 0 0 Z " fill="#040404" transform="translate(197.625,238.30078125)"/>
<path d="M0 0 C3.49406769 1.66762322 4.82670681 2.74006022 7 6 C7.43660384 9.30571478 7.71042728 11.81419387 5.94921875 14.75390625 C3.22209328 18.09242268 1.48544394 19.83495067 -2.8125 20.3125 C-6.7307645 19.92835642 -8.21293267 18.70743683 -11 16 C-12.75027469 12.49945062 -12.68972059 8.80988517 -12 5 C-9.08714969 0.60552686 -5.12968619 -0.87313807 0 0 Z " fill="#070707" transform="translate(284,162)"/>
<path d="M0 0 C3.03978021 0.68164768 4.80055419 2.23591662 6.93359375 4.43359375 C8.69127595 7.94895814 7.87793999 11.71564315 6.93359375 15.43359375 C4.78982895 18.09705911 3.34900914 19.13621355 0 19.83984375 C-3.89655066 20.13447896 -5.72532427 19.65387586 -9.06640625 17.49609375 C-11.39838638 13.92524918 -11.8090819 11.78853356 -11.54296875 7.59375 C-10.17888267 1.4106385 -5.7420565 -0.35820012 0 0 Z " fill="#060606" transform="translate(283.06640625,330.56640625)"/>
<path d="M0 0 C0.33 0 0.66 0 1 0 C0.6153394 6.15456953 -1.39787551 10.04829248 -5 15 C-5.86625 16.21429688 -5.86625 16.21429688 -6.75 17.453125 C-9.39493213 20.44704123 -12.33200321 22.52160146 -15.6875 24.625 C-16.30383301 25.01743896 -16.92016602 25.40987793 -17.55517578 25.81420898 C-22.21108649 28.69756794 -26.67575296 30.62303956 -32 32 C-32 31.34 -32 30.68 -32 30 C-30.20703125 28.66796875 -30.20703125 28.66796875 -27.8125 27.1875 C-24.01029915 24.83555818 -21.10213644 22.21999876 -18 19 C-17.03508631 18.04171232 -16.06754502 17.08606455 -15.09765625 16.1328125 C-8.49925447 9.63516409 -8.49925447 9.63516409 -2.3125 2.75 C-1.549375 1.8425 -0.78625 0.935 0 0 Z " fill="#1D5EC6" transform="translate(374,347)"/>
<path d="M0 0 C4.55555556 0.55555556 4.55555556 0.55555556 6 2 C6.1875 4.4375 6.1875 4.4375 6 7 C5.34 7.66 4.68 8.32 4 9 C-0.55555556 8.44444444 -0.55555556 8.44444444 -2 7 C-2.1875 4.5625 -2.1875 4.5625 -2 2 C-1.34 1.34 -0.68 0.68 0 0 Z " fill="#191919" transform="translate(319,314)"/>
<path d="M0 0 C2.5625 0.1875 2.5625 0.1875 4.5625 2.1875 C4.00694444 6.74305556 4.00694444 6.74305556 2.5625 8.1875 C0.125 8.375 0.125 8.375 -2.4375 8.1875 C-3.0975 7.5275 -3.7575 6.8675 -4.4375 6.1875 C-3.71780303 0.28598485 -3.71780303 0.28598485 0 0 Z " fill="#1A1A1A" transform="translate(225.4375,307.8125)"/>
<path d="M0 0 C2.93453261 0.36681658 3.86437246 0.86437246 6 3 C5.63318342 5.93453261 5.13562754 6.86437246 3 9 C0.06546739 8.63318342 -0.86437246 8.13562754 -3 6 C-2.63318342 3.06546739 -2.13562754 2.13562754 0 0 Z " fill="#151515" transform="translate(224,196)"/>
<path d="M0 0 C2.5 0.125 2.5 0.125 3.5 1.125 C3.625 4.125 3.625 4.125 3.5 7.125 C2.5 8.125 2.5 8.125 0.0625 8.3125 C-2.5 8.125 -2.5 8.125 -4.5 6.125 C-3.77607362 0.18880368 -3.77607362 0.18880368 0 0 Z " fill="#141414" transform="translate(157.5,251.875)"/>
<path d="M0 0 C2.5625 0.1875 2.5625 0.1875 4.5625 2.1875 C4.1875 4.8125 4.1875 4.8125 3.5625 7.1875 C1.1875 7.8125 1.1875 7.8125 -1.4375 8.1875 C-3.4375 6.1875 -3.4375 6.1875 -3.625 3.625 C-3.37291261 0.34786389 -3.27713611 0.25208739 0 0 Z " fill="#0A0A0A" transform="translate(320.4375,189.8125)"/>
<path d="M0 0 C5.28 0 10.56 0 16 0 C16 0.99 16 1.98 16 3 C11.05 3 6.1 3 1 3 C0.67 2.01 0.34 1.02 0 0 Z " fill="#0D0D0D" transform="translate(134,255)"/>
<path d="M0 0 C0.99 0.33 1.98 0.66 3 1 C3 3.64 3 6.28 3 9 C2.01 9 1.02 9 0 9 C0 6.03 0 3.06 0 0 Z " fill="#171717" transform="translate(280,150)"/>
<path d="M0 0 C0.99 0 1.98 0 3 0 C3 2.64 3 5.28 3 8 C2.01 8 1.02 8 0 8 C0 5.36 0 2.72 0 0 Z " fill="#121212" transform="translate(280,354)"/>
</svg>
